<?xml version="1.0" encoding="utf-8" ?><svg xmlns="http://www.w3.org/2000/svg" xmlns:xlink="http://www.w3.org/1999/xlink" width="512" height="512" viewBox="0 0 512 512"><defs><linearGradient id="gradient_0" gradientUnits="userSpaceOnUse" x1="314.9245" y1="356.33612" x2="32.45171" y2="356.1337"><stop offset="0" stop-color="#39D1A1"/><stop offset="1" stop-color="#9BFFAB"/></linearGradient></defs><path fill="url(#gradient_0)" d="M370.044 245.05C370.141 245.063 370.237 245.077 370.334 245.09C374.978 245.674 379.998 245.328 384.692 245.324L415.9 245.293C423.212 245.285 430.8 244.861 438.064 245.723C450.641 247.29 462.1 253.733 469.973 263.665C478.835 274.843 480.071 285.215 480.092 298.949C480.097 302.318 480.329 305.869 479.939 309.209C479.458 313.341 477.457 317.357 474.109 319.916C470.563 322.626 465.838 323.403 461.777 325.079C451.288 329.408 443.6 339.737 441.927 350.869C440.526 360.196 442.879 369.261 448.491 376.841C451.9 381.443 456.804 384.983 462.026 387.248C469.583 390.525 477.068 390.943 479.445 400.498C480.299 403.929 480.124 407.583 480.118 411.094C480.109 416.273 480.307 421.58 479.559 426.713C477.604 439.239 470.785 450.488 460.584 458.016C454.853 462.242 448.408 464.99 441.432 466.356C435.322 467.553 429.046 467.409 422.846 467.399L405.801 467.365L380.758 467.371C377.042 467.377 373.283 467.546 369.574 467.436C369.421 459.258 369.977 451.083 369.758 442.885C369.693 440.448 369.803 437.802 369.237 435.43C368.926 434.125 368.316 433.002 367.352 432.064C365.755 430.509 363.581 429.762 361.371 429.861C359.225 429.956 357.383 430.873 355.961 432.489C355.402 433.125 354.862 433.95 354.677 434.789C353.959 438.044 354.249 441.736 354.264 445.063C354.299 452.525 354.665 460.049 354.498 467.503C344.274 467.35 334.05 467.301 323.825 467.353C318.687 467.353 313.504 467.514 308.374 467.29C308.106 467.324 308.208 467.318 307.931 467.326C302.149 467.487 296.342 467.338 290.557 467.34L255.889 467.351L153.164 467.342L102.661 467.341C93.0723 467.35 81.576 468.111 72.2734 466.561C62.6671 464.998 53.7543 460.578 46.6959 453.877C37.1708 444.801 32.2455 432.65 31.9942 419.586C31.8944 414.401 31.425 407.71 32.2955 402.681C32.695 400.374 33.6195 398.275 34.947 396.354C39.3346 390.002 45.8762 390.483 52.3232 387.914C57.0224 386.041 61.2688 382.905 64.7421 379.252C71.5633 372.076 74.1558 363.521 73.8752 353.739C73.8258 352.02 73.398 350.256 73.0166 348.585C70.4938 337.662 62.7188 328.7 52.2607 324.662C46.8135 322.549 40.9919 322.522 36.5608 318.213C33.0439 314.793 32.0179 310.431 31.9714 305.675C31.8384 292.056 31.3936 281.46 38.4149 269.145C40.5186 265.456 43.0219 261.901 46.023 258.882C52.8187 252.045 62.1977 247.631 71.6578 246.055C80.1085 244.648 89.6285 245.395 98.249 245.404L142.613 245.39L307.978 245.34L336.851 245.324C342.728 245.322 348.684 245.496 354.547 245.136C354.403 252.121 354.305 259.107 354.251 266.094C354.207 269.693 353.823 273.412 354.367 276.984C354.639 278.766 355.105 280.327 356.354 281.677C357.884 283.306 360.001 284.259 362.235 284.323C364.372 284.375 366.019 283.415 367.521 281.953C368.467 281.031 369.359 279.893 369.694 278.592C370.715 274.638 370.159 269.588 370.144 265.502L370.083 247.995C370.076 247.013 370.063 246.031 370.044 245.05ZM307.978 245.34L308.186 245.789C309.327 246.075 310.457 246.36 311.618 246.555L311.923 246.319C311.84 246.777 311.65 247.114 311.885 247.53L312.3 247.301C312.905 247.927 315.055 249.918 315.036 250.689C314.996 252.255 313.882 253.807 313.74 255.376C313.623 256.668 313.833 258.065 313.821 259.375C313.784 263.613 313.786 267.789 313.848 272.026C313.962 279.859 313.878 287.704 313.908 295.539L313.669 405.194C313.676 411.991 313.945 418.808 313.879 425.603C313.838 429.748 313.511 433.869 313.559 438.026L313.726 455.646C313.735 457.876 313.92 460.18 313.785 462.402C313.733 463.248 313.65 463.78 312.942 464.339C312.372 464.791 311.872 464.939 311.168 465.067L310.968 465.281L311.319 465.583C311.613 465.838 311.819 466.054 312.015 466.396C311.343 466.856 310.637 466.786 309.846 466.768C309.192 466.754 308.896 466.91 308.374 467.29C313.504 467.514 318.687 467.353 323.825 467.353C334.05 467.301 344.274 467.35 354.498 467.503C354.665 460.049 354.299 452.525 354.264 445.063C354.249 441.736 353.959 438.044 354.677 434.789C354.862 433.95 355.402 433.125 355.961 432.489C357.383 430.873 359.225 429.956 361.371 429.861C363.581 429.762 365.755 430.509 367.352 432.064C368.316 433.002 368.926 434.125 369.237 435.43C369.803 437.802 369.693 440.448 369.758 442.885C369.977 451.083 369.421 459.258 369.574 467.436C373.283 467.546 377.042 467.377 380.758 467.371L405.801 467.365L422.846 467.399C429.046 467.409 435.322 467.553 441.432 466.356C448.408 464.99 454.853 462.242 460.584 458.016C470.785 450.488 477.604 439.239 479.559 426.713C480.307 421.58 480.109 416.273 480.118 411.094C480.124 407.583 480.299 403.929 479.445 400.498C477.068 390.943 469.583 390.525 462.026 387.248C456.804 384.983 451.9 381.443 448.491 376.841C442.879 369.261 440.526 360.196 441.927 350.869C443.6 339.737 451.288 329.408 461.777 325.079C465.838 323.403 470.563 322.626 474.109 319.916C477.457 317.357 479.458 313.341 479.939 309.209C480.329 305.869 480.097 302.318 480.092 298.949C480.071 285.215 478.835 274.843 469.973 263.665C462.1 253.733 450.641 247.29 438.064 245.723C430.8 244.861 423.212 245.285 415.9 245.293L384.692 245.324C379.998 245.328 374.978 245.674 370.334 245.09C370.237 245.077 370.141 245.063 370.044 245.05C370.063 246.031 370.076 247.013 370.083 247.995L370.144 265.502C370.159 269.588 370.715 274.638 369.694 278.592C369.359 279.893 368.467 281.031 367.521 281.953C366.019 283.415 364.372 284.375 362.235 284.323C360.001 284.259 357.884 283.306 356.354 281.677C355.105 280.327 354.639 278.766 354.367 276.984C353.823 273.412 354.207 269.693 354.251 266.094C354.305 259.107 354.403 252.121 354.547 245.136C348.684 245.496 342.728 245.322 336.851 245.324L307.978 245.34Z"/><defs><linearGradient id="gradient_1" gradientUnits="userSpaceOnUse" x1="479.2576" y1="356.23779" x2="308.98764" y2="356.25684"><stop offset="0" stop-color="#00B69C"/><stop offset="1" stop-color="#3BD2A1"/></linearGradient></defs><path fill="url(#gradient_1)" d="M370.044 245.05C370.141 245.063 370.237 245.077 370.334 245.09C374.978 245.674 379.998 245.328 384.692 245.324L415.9 245.293C423.212 245.285 430.8 244.861 438.064 245.723C450.641 247.29 462.1 253.733 469.973 263.665C478.835 274.843 480.071 285.215 480.092 298.949C480.097 302.318 480.329 305.869 479.939 309.209C479.458 313.341 477.457 317.357 474.109 319.916C470.563 322.626 465.838 323.403 461.777 325.079C451.288 329.408 443.6 339.737 441.927 350.869C440.526 360.196 442.879 369.261 448.491 376.841C451.9 381.443 456.804 384.983 462.026 387.248C469.583 390.525 477.068 390.943 479.445 400.498C480.299 403.929 480.124 407.583 480.118 411.094C480.109 416.273 480.307 421.58 479.559 426.713C477.604 439.239 470.785 450.488 460.584 458.016C454.853 462.242 448.408 464.99 441.432 466.356C435.322 467.553 429.046 467.409 422.846 467.399L405.801 467.365L380.758 467.371C377.042 467.377 373.283 467.546 369.574 467.436C369.421 459.258 369.977 451.083 369.758 442.885C369.693 440.448 369.803 437.802 369.237 435.43C368.926 434.125 368.316 433.002 367.352 432.064C365.755 430.509 363.581 429.762 361.371 429.861C359.225 429.956 357.383 430.873 355.961 432.489C355.402 433.125 354.862 433.95 354.677 434.789C353.959 438.044 354.249 441.736 354.264 445.063C354.299 452.525 354.665 460.049 354.498 467.503C344.274 467.35 334.05 467.301 323.825 467.353C318.687 467.353 313.504 467.514 308.374 467.29C308.896 466.91 309.192 466.754 309.846 466.768C310.637 466.786 311.343 466.856 312.015 466.396C311.819 466.054 311.613 465.838 311.319 465.583L310.968 465.281L311.168 465.067C311.872 464.939 312.372 464.791 312.942 464.339C313.65 463.78 313.733 463.248 313.785 462.402C313.92 460.18 313.735 457.876 313.726 455.646L313.559 438.026C313.511 433.869 313.838 429.748 313.879 425.603C313.945 418.808 313.676 411.991 313.669 405.194L313.908 295.539C313.878 287.704 313.962 279.859 313.848 272.026C313.786 267.789 313.784 263.613 313.821 259.375C313.833 258.065 313.623 256.668 313.74 255.376C313.882 253.807 314.996 252.255 315.036 250.689C315.055 249.918 312.905 247.927 312.3 247.301L311.885 247.53C311.65 247.114 311.84 246.777 311.923 246.319L311.618 246.555C310.457 246.36 309.327 246.075 308.186 245.789L307.978 245.34L336.851 245.324C342.728 245.322 348.684 245.496 354.547 245.136C354.403 252.121 354.305 259.107 354.251 266.094C354.207 269.693 353.823 273.412 354.367 276.984C354.639 278.766 355.105 280.327 356.354 281.677C357.884 283.306 360.001 284.259 362.235 284.323C364.372 284.375 366.019 283.415 367.521 281.953C368.467 281.031 369.359 279.893 369.694 278.592C370.715 274.638 370.159 269.588 370.144 265.502L370.083 247.995C370.076 247.013 370.063 246.031 370.044 245.05ZM363.77 344.183C366.176 342.999 368.708 341.43 369.582 338.732C370.441 336.082 370.423 317.93 370.035 314.62C369.876 313.265 369.539 311.958 368.904 310.743C367.938 308.894 366.543 307.696 364.547 307.099C363.446 306.77 362.531 306.692 361.391 306.806C359.065 307.21 357.056 308.322 355.704 310.306C355.001 311.337 354.815 312.428 354.667 313.641C354.215 317.356 354.105 335.78 354.831 338.927C355.217 340.6 356.727 342.256 358.17 343.117C359.905 344.153 361.784 344.462 363.77 344.183ZM363.813 405.438C365.612 404.763 368.1 403.356 368.977 401.564C369.656 400.177 369.866 398.37 370.008 396.839C370.359 393.057 370.589 375.954 369.582 373.403C368.773 371.354 367.328 369.557 365.254 368.711C363.914 368.164 362.509 368.142 361.09 368.289C358.69 368.768 356.904 369.726 355.558 371.834C355.092 372.563 354.857 373.278 354.734 374.131C354.165 378.088 354.082 396.622 354.937 400.194C355.392 402.093 356.545 403.378 358.226 404.358C359.988 405.385 361.811 405.642 363.813 405.438Z"/><defs><linearGradient id="gradient_2" gradientUnits="userSpaceOnUse" x1="389.05386" y1="137.66023" x2="145.21678" y2="137.07884"><stop offset="0" stop-color="#1FC59F"/><stop offset="1" stop-color="#74EDA7"/></linearGradient></defs><path fill="url(#gradient_2)" d="M213.817 91.5003C220.248 84.0384 227.69 77.2265 234.662 70.2626C240.271 64.6599 248.333 55.4352 254.7 51.4176C260.433 47.7999 267.4 45.6348 274.148 45.1597C285.643 44.3504 296.127 48.0875 304.708 55.6858C310.316 60.6519 317.464 66.7612 317.921 74.7099C318.24 80.2544 314.954 84.2398 313.228 89.2086C310.134 98.116 312.321 109.483 319.41 115.976C325.06 121.151 331.743 123.957 339.47 123.528C347.935 123.058 354.19 116.03 362.905 117.877C365.953 118.523 368.609 120.075 370.914 122.142C381.085 131.261 388.887 141.555 389.6 155.711C390.157 166.336 386.521 176.755 379.473 184.725C376.771 187.726 373.71 190.515 370.852 193.373L353.225 210.977C349.945 214.253 346.403 217.463 343.465 221.051C338.8 216.964 334.512 212.296 330.139 207.89C327.975 205.711 325.829 203.192 323.243 201.518C322.048 200.745 320.824 200.306 319.388 200.365C317.038 200.461 314.861 201.691 313.353 203.463C312.068 204.973 311.437 206.834 311.637 208.815C312.303 215.416 329.014 226.656 328.862 229.46L328.614 229.7C321.802 229.375 314.957 229.502 308.138 229.502L276.686 229.504L179.611 229.53C163.549 229.53 147.382 229.923 131.332 229.5C126.663 230.063 120.255 229.581 115.413 229.577C102.272 229.566 89.0147 229.225 75.8878 229.802C78.2874 225.829 85.5854 219.324 89.114 215.792L114.087 190.817L136.013 168.892C139.706 165.2 143.337 161.098 147.309 157.72C150.88 153.822 154.758 150.152 158.499 146.415L178.07 126.845L193.226 111.694C196.247 108.678 199.222 105.477 202.466 102.708C206.753 106.658 210.777 110.945 214.885 115.083C217.377 117.593 219.985 120.752 223.056 122.525C224.098 123.126 225.3 123.366 226.496 123.316C228.735 123.224 230.666 122.088 232.122 120.426C233.518 118.832 234.462 116.706 234.217 114.554C234.055 113.128 233.41 111.962 232.581 110.814C230.227 107.559 226.891 104.673 224.055 101.814C220.653 98.3831 217.337 94.8069 213.817 91.5003ZM263.137 158.456C265.368 157.69 267.843 155.964 268.912 153.821C269.789 152.064 269.797 149.994 269.109 148.175C268.662 146.991 267.948 145.942 267.145 144.973C265.098 142.5 254.245 131.623 251.986 130.57C250.909 130.068 249.243 130.167 248.081 130.291C245.809 130.722 244.031 131.721 242.659 133.629C241.389 135.376 240.9 137.572 241.311 139.693C241.571 141.004 242.158 141.987 242.958 143.038C245.037 145.772 255.606 156.008 258.397 157.731C259.826 158.614 261.525 158.518 263.137 158.456ZM298.275 193.535C300.863 192.759 302.919 190.859 304.155 188.479C304.488 187.838 304.731 187.175 304.949 186.489C304.688 185.11 304.522 183.443 303.799 182.226C302.029 179.248 290.702 167.95 287.792 166.092C286.552 165.301 284.729 165.127 283.297 165.279C280.916 165.806 279.045 166.839 277.699 168.942C276.521 170.745 276.157 172.962 276.696 175.047C276.982 176.124 277.435 176.933 278.106 177.811C280.155 180.489 290.968 191.386 293.591 192.869C294.988 193.658 296.724 193.597 298.275 193.535Z"/><path fill="#7AF0A8" d="M147.309 157.72L147.77 157.548C148.331 157.335 148.841 157.072 149.369 156.791C149.291 157.257 149.195 157.702 149.07 158.158L149.41 158.301C150.176 157.941 150.915 157.559 151.648 157.137L151.814 157.311C151.003 158.8 148.486 161.996 148.082 163.217C147.702 164.367 148.216 167.647 148.201 168.991C148.177 171.063 147.929 173.137 147.885 175.214C147.805 179.064 147.94 182.92 147.853 186.771C147.654 195.491 147.315 204.3 147.688 213.022C147.771 214.95 148.954 216.946 148.82 218.835C148.611 221.768 147.582 225.902 145.286 227.807C145.197 227.881 145.13 227.978 145.052 228.063L146.017 228.466C144.075 229.862 134.859 228.158 131.332 229.5C126.663 230.063 120.255 229.581 115.413 229.577C102.272 229.566 89.0147 229.225 75.8878 229.802C78.2874 225.829 85.5854 219.324 89.114 215.792L114.087 190.817L136.013 168.892C139.706 165.2 143.337 161.098 147.309 157.72Z"/></svg>