<?xml version="1.0" encoding="utf-8" ?><svg xmlns="http://www.w3.org/2000/svg" xmlns:xlink="http://www.w3.org/1999/xlink" width="512" height="512" viewBox="0 0 512 512"><defs><linearGradient id="gradient_0" gradientUnits="userSpaceOnUse" x1="479.38849" y1="356.70569" x2="32.126907" y2="355.7887"><stop offset="0" stop-color="#D49E6D"/><stop offset="1" stop-color="#FFF2A6"/></linearGradient></defs><path fill="url(#gradient_0)" d="M370.214 244.979C374.162 245.952 381.926 245.405 386.306 245.4L417.112 245.391C425.425 245.379 434.472 244.677 442.599 246.532C451.104 248.406 458.927 252.591 465.206 258.627C474.662 267.74 479.785 279.644 480.046 292.757C480.086 295.975 480.103 299.193 480.098 302.411C480.097 309.687 479.697 316.418 472.832 320.642C470.444 322.111 467.768 322.873 465.123 323.734C459.924 325.427 455.133 328.077 451.34 332.087C444.962 338.83 441.167 347.615 441.48 356.982C441.927 370.337 449.812 382.215 462.202 387.414C466.747 389.321 471.625 389.963 475.317 393.515C478.7 396.77 479.947 400.914 480.08 405.497C480.593 423.115 480.226 438.395 467.219 451.984C461.169 458.408 453.487 463.069 444.995 465.467C434.475 468.339 421.62 467.284 410.681 467.285C397.019 467.211 383.357 467.274 369.697 467.474C369.312 459.091 369.981 450.609 369.728 442.194C369.656 439.792 369.801 436.911 369.085 434.602C368.809 433.713 368.135 432.91 367.488 432.26C365.742 430.507 364.308 429.842 361.872 429.854C359.727 429.865 357.7 430.58 356.222 432.171C355.515 432.932 354.934 433.806 354.703 434.829C353.846 438.612 354.32 443.14 354.352 447.034C354.377 453.813 354.479 460.59 354.658 467.366C347.297 467.728 339.707 467.317 332.32 467.32L284.681 467.349L137.375 467.412L102.604 467.416C81.9609 467.442 63.2067 469.673 46.8533 454.007C37.3001 444.855 32.2976 432.806 31.9798 419.632C31.8546 414.439 31.3823 407.98 32.2749 402.918C33.3224 396.978 37.1209 392.509 42.837 390.562C45.9162 389.513 49.1294 388.981 52.1848 387.809C56.9943 385.965 61.107 383.202 64.6426 379.437C71.0871 372.576 74.227 363.871 73.8442 354.482C73.3184 341.588 64.8154 329.471 52.7267 324.864C47.305 322.797 41.3599 322.623 36.8918 318.471C33.3208 315.153 32.1419 311.12 31.996 306.394C31.5842 293.06 31.5392 281.268 38.3325 269.245C40.2633 265.828 42.462 262.604 45.1713 259.753C52.0811 252.483 61.8074 247.602 71.6778 245.986C79.8022 244.655 90.616 245.397 99.0474 245.402L148.611 245.393L280.995 245.401C305.524 245.404 330.151 245.856 354.668 245.199C354.343 250.744 354.47 256.323 354.373 261.876C354.283 267.068 353.792 272.627 354.517 277.778C354.674 278.895 354.958 279.827 355.592 280.77C356.795 282.559 358.868 283.807 360.97 284.209C363.102 284.616 364.827 284.242 366.56 282.954C367.602 282.18 368.789 281.087 369.307 279.868C370.982 275.926 370.098 257.841 370.023 252.395C369.993 250.233 369.718 247.57 370.117 245.452C370.147 245.294 370.182 245.137 370.214 244.979ZM363.976 344.204C366.143 343.092 368.638 341.907 369.487 339.42C370.467 336.551 370.483 316.821 369.895 313.005C369.794 312.347 369.552 311.719 369.248 311.13C368.246 309.187 366.632 307.679 364.525 307.025C363.486 306.703 362.35 306.584 361.278 306.818C358.978 307.229 357.243 308.161 355.86 310.086C355.272 310.905 354.959 311.684 354.797 312.679C354.166 316.555 354.114 335.217 354.771 338.697C355.106 340.469 356.353 341.976 357.845 342.934C359.778 344.175 361.738 344.406 363.976 344.204ZM364.169 405.373C366.298 404.574 368.344 403.105 369.28 400.963C370.603 397.931 370.388 379.501 369.989 375.572C369.889 374.585 369.667 373.627 369.288 372.708C368.545 370.904 367.231 369.464 365.407 368.73C363.714 368.049 362.009 368.13 360.228 368.298C358.208 368.953 356.204 370.346 355.262 372.309C354.035 374.865 354.217 394.055 354.54 397.781C354.639 398.923 354.842 400.164 355.253 401.235C355.912 402.954 357.446 404.139 359.101 404.831C360.756 405.522 362.405 405.645 364.169 405.373Z"/><defs><linearGradient id="gradient_1" gradientUnits="userSpaceOnUse" x1="389.08478" y1="159.17061" x2="87.851967" y2="127.59779"><stop offset="0" stop-color="#E1B17A"/><stop offset="1" stop-color="#FFF1A6"/></linearGradient></defs><path fill="url(#gradient_1)" d="M274.984 45.1072C275.601 45.0607 276.214 45.0504 276.832 45.0497C292.742 45.0325 300.971 51.6684 311.635 62.3954C325.845 76.6881 311.784 83.2679 311.84 97.8312C311.864 104.116 314.502 111.312 319.083 115.729C326.394 122.778 337.022 125.758 346.624 121.885C350.755 120.219 354.581 117.569 359.19 117.517C364.71 117.454 369.188 120.268 372.993 124.033C382.817 133.756 389.68 143.486 389.655 157.895C389.646 165.19 387.658 172.346 383.901 178.599C379.421 186.019 371.67 192.543 365.497 198.707L343.186 221.072C340.1 217.452 336.468 214.129 333.108 210.756C330.148 207.784 327.164 204.14 323.688 201.797C321.845 200.555 320.225 200.074 318.042 200.531C315.789 201.002 314.08 202.219 312.853 204.163C311.457 206.375 311.225 209.02 312.302 211.414C313.721 214.572 323.622 223.549 326.569 226.48C327.288 227.194 328.836 228.369 329.045 229.319C328.444 229.717 327.961 229.699 327.246 229.705L201.205 229.62L117.86 229.697L92.2368 229.68C86.7829 229.675 81.2152 229.435 75.7849 229.98C79.6912 224.424 86.535 218.435 91.4633 213.505L120.071 184.898L173.751 131.213C183.25 121.713 192.548 111.739 202.457 102.684C207.016 106.674 211.208 111.275 215.471 115.585C217.811 117.949 220.306 120.995 223.245 122.617C224.217 123.154 225.418 123.335 226.516 123.316C228.808 123.276 230.711 122.022 232.221 120.354C233.56 118.874 234.345 117.001 234.221 114.987C234.138 113.626 233.729 112.512 232.997 111.373C231.025 108.306 227.898 105.699 225.36 103.086C221.583 99.196 217.9 95.0969 213.846 91.4955C214.144 91.1131 214.455 90.7406 214.778 90.3787C220.952 83.447 227.937 77.0183 234.506 70.443C239.379 65.5642 249.096 54.8737 254.509 51.5161C260.668 47.6509 267.721 45.4432 274.984 45.1072ZM263.295 158.478C265.564 157.821 267.555 156.045 268.681 153.983C269.633 152.241 269.863 150.278 269.239 148.382C268.803 147.057 268.04 145.928 267.162 144.86C265.542 142.888 254.517 131.862 252.943 131.064C251.13 130.145 249.513 130.159 247.552 130.296C245.325 130.83 243.538 132.151 242.35 134.123C241.236 135.972 240.841 138.209 241.448 140.3C241.759 141.372 242.401 142.273 243.086 143.137C245.23 145.839 256.057 156.521 258.671 157.882C260.063 158.606 261.769 158.516 263.295 158.478ZM298.714 193.525C300.988 192.522 303.291 190.991 304.221 188.573C304.986 186.584 304.725 184.27 303.791 182.386C302.617 180.018 291.88 169.177 289.494 167.24C288.61 166.523 287.705 165.958 286.62 165.592C285.332 165.158 284.135 165.224 282.805 165.313C280.449 165.982 278.566 167.218 277.384 169.422C276.349 171.35 276.165 173.623 276.879 175.692C277.733 178.215 291.137 191.717 293.678 192.938C295.237 193.687 297.03 193.568 298.714 193.525Z"/></svg>