<?xml version="1.0" encoding="utf-8" ?><svg xmlns="http://www.w3.org/2000/svg" xmlns:xlink="http://www.w3.org/1999/xlink" width="1024" height="1024" viewBox="0 0 1024 1024"><defs><linearGradient id="gradient_0" gradientUnits="userSpaceOnUse" x1="640.37799" y1="880.33624" x2="364.61139" y2="214.73294"><stop offset="0" stop-color="#0E0A0D"/><stop offset="1" stop-color="#4C4343"/></linearGradient></defs><path fill="url(#gradient_0)" d="M649.404 65.2774C655.447 74.7203 661.05 81.0446 670.525 87.1725C684.451 94.0953 698.342 96.258 713.362 91.2905C718.317 89.6519 722.955 87.3106 727.547 84.8583C728.752 86.5348 729.987 88.1131 730.763 90.0421C733.509 93.6764 735.981 97.5264 738.516 101.31C735.857 102.902 734.107 104.401 732.399 106.98C731.412 110.035 731.348 112.694 731.545 115.867C733.892 119.235 736.094 121.086 739.7 123.027C743.503 122.918 747.29 122.477 751.017 121.708C754.491 126.752 758.21 131.819 761.022 137.27C757.466 140.039 754.396 142.655 753.935 147.483C753.634 150.642 754.807 153.519 756.842 155.896C758.559 157.901 760.519 158.912 762.868 160.007C766.572 159.79 769.616 159.433 773.026 157.813C776.832 163.663 780.688 169.475 784.124 175.554C780.603 177.975 777.794 180.014 777.068 184.558C776.626 187.499 777.463 190.489 779.367 192.774C781.659 195.552 784.304 196.686 787.717 197.552L787.878 197.594C790.596 196.905 793.214 196.242 795.798 195.133C799.355 201.244 802.952 207.25 806.913 213.112C803.327 215.581 800.201 218.239 799.438 222.808C798.952 225.715 799.664 228.632 801.527 230.931C803.406 233.248 806.277 234.535 809.218 234.773C812.305 235.023 815.528 233.997 818.33 232.784C821.727 239.127 825.38 245.231 829.289 251.272C825.935 253.649 823.028 256.037 822.39 260.387C821.997 263.063 822.828 265.737 824.452 267.874C827.05 271.29 830.39 272.542 834.354 273.738C836.814 273.031 839.299 272.371 841.725 271.557C844.673 277.281 848.223 282.62 851.872 287.914C848.504 290.379 846 292.662 845.2 296.969C844.659 299.878 845.3 303.092 847.121 305.452C849.154 308.085 852.63 309.848 855.916 310.21C858.301 310.473 860.904 309.94 862.999 308.794C866.823 311.418 872.107 322.304 873.997 326.715C857.232 334.826 846.047 343.661 839.802 361.897C837.244 369.37 836.443 377.941 837.647 385.761C838.026 388.226 842.256 396.421 841.734 397.987C841.475 398.763 840.094 399.907 839.505 400.485C838.569 402.845 839.351 406.637 839.547 409.209C848.608 419.672 858.222 426.554 872.461 427.529C881.089 428.119 890.311 426.234 898.089 422.468C899.527 429.015 901.554 435.303 903.819 441.606C900.07 443.183 895.628 444.839 893.928 448.893C892.763 451.675 892.838 455.889 894.071 458.636C895.298 461.37 897.788 463.001 900.568 463.908C903.42 464.838 909.198 464.284 910.637 467.018C913.054 471.611 914.26 477.707 915.869 482.71C911.668 484.711 907.208 486.299 905.596 491.089C905.239 492.148 905.009 493.253 904.782 494.346C905.67 498.112 906.692 501.414 910.233 503.555C913.61 505.597 917.323 505.373 921.062 504.927C923.219 511.114 924.582 517.543 927.093 523.604C922.884 524.737 918.913 526.141 916.667 530.219C915.338 532.632 915.161 535.435 916.026 538.038C917.124 541.342 919.771 543.828 922.914 545.193C926.328 546.675 929.581 546.418 933.187 546.072C934.712 552.144 936.662 558.096 938.541 564.066C934.438 565.726 930.449 567.723 928.725 572.126C927.725 574.679 927.752 577.494 928.89 579.998C930.33 583.169 933.191 585.347 936.44 586.45C939.115 587.358 941.723 587.362 944.505 587.154C946.159 593.29 948.369 599.415 949.769 605.59C945.641 607.272 941.968 609.287 940.125 613.619C939.089 616.055 939.205 618.908 940.219 621.329C941.555 624.518 944.281 626.799 947.485 627.983C950.451 629.079 953.109 628.769 956.171 628.471L961.146 645.17C956.765 647.034 952.938 649.083 951.104 653.823C949.993 656.688 950.127 659.886 951.474 662.648C953.024 665.887 955.804 668.036 959.203 669.076C962.163 669.981 965.296 669.325 968.291 668.889C969.96 674.633 971.424 680.481 973.283 686.163C955.291 691.878 940.76 699.663 931.744 717.097C924.533 731.039 924.687 746.135 929.35 760.846C929.471 761.225 929.6 761.602 929.736 761.977C919.145 765.432 908.373 768.371 897.699 771.561C850.618 785.633 803.054 797.984 755.876 811.73C594.967 858.367 433.742 903.91 272.213 948.354C267.2 934.268 257.953 922.847 244.321 916.293C226.537 907.744 210.586 911.468 192.363 916.055C191.08 910.32 189.111 904.835 187.431 899.216C191.43 897.141 196.023 894.74 197.392 890.073C198.306 886.957 197.968 882.75 196.296 879.925C194.905 877.577 192.498 876.247 189.898 875.644C186.71 874.904 183.366 876.152 180.543 875.591C180.341 875.551 179.772 874.708 179.759 874.685C178.879 873.134 178.502 870.799 178.155 869.049C177.005 865.651 175.933 862.228 174.939 858.781C177.55 857.864 179.925 856.53 182.249 855.037C182.796 854.242 183.33 853.438 183.849 852.624C185.668 849.74 186.268 846.619 185.417 843.271C184.646 840.321 182.708 837.812 180.05 836.32C176.234 834.173 172.898 834.451 168.853 835.62C167.162 829.882 165.129 824.241 163.186 818.584C166.75 817.45 169.998 816.235 172.557 813.344C174.38 811.285 175.408 808.636 175.172 805.872C174.885 802.506 172.838 799.481 170.188 797.48C166.191 794.461 161.875 793.921 157.061 794.631C155.918 789.002 154.026 783.371 152.474 777.825C155.271 776.711 157.8 775.616 159.895 773.367C162.251 770.839 163.746 767.623 163.423 764.112C163.115 761.085 161.533 758.332 159.072 756.543C155.158 753.64 150.744 753.716 146.13 754.35L140.319 737.466C143.043 736.403 145.676 735.397 147.901 733.423C150.468 731.146 152.243 728.155 152.25 724.651C152.257 721.742 150.92 718.984 148.762 717.058C144.649 713.384 140.018 713.417 134.86 713.583C132.438 708.542 131.048 702.04 129.29 696.665C131.123 696.118 133.038 695.602 134.752 694.741C138.557 692.83 139.933 689.956 141.247 686.14C140.659 682.167 139.747 678.204 136.479 675.54C132.972 672.682 128.712 672.895 124.49 673.205C122.454 666.958 120.364 660.55 119.128 654.095C128.295 652.284 137.313 649.814 146.305 647.288C149.795 641.964 153.871 636.965 157.787 631.948L144.694 630.268C142.76 626.655 140.536 623.206 138.043 619.954L139.51 618.763C141.129 617.45 142.529 616.284 143.512 614.404C145.094 611.38 145.422 608.007 144.384 604.751C143.349 601.507 141.037 598.779 137.907 597.389C133.64 595.493 129.605 596.295 125.407 597.88C122.375 592.795 119.044 587.781 116.512 582.426C118.765 580.673 120.873 579.006 122.254 576.436C123.671 573.799 124.194 570.757 123.255 567.869C122.385 565.194 120.436 563.138 117.95 561.883C113.407 559.59 109.019 560.587 104.482 562.129C101.636 557.044 98.4859 552.087 95.3951 547.148C98.0595 545.154 100.634 543.071 102.108 540.009C103.46 537.2 103.724 534.151 102.554 531.227C101.423 528.401 99.1363 526.227 96.3302 525.086C91.6428 523.182 87.4249 524.554 83.032 526.392C79.8241 521.261 76.7996 515.99 73.6353 510.827C75.4816 509.956 77.155 509.028 78.6277 507.588C80.8858 505.38 82.279 502.529 82.2155 499.334C82.1308 495.068 79.9576 492.098 77.0202 489.259C71.8267 488.092 67.9626 488.573 62.7752 489.351C58.6887 486.429 54.6274 476.477 52.3181 471.932L55.0904 470.598C69.6475 463.493 78.8081 455.241 84.0971 439.504C88.9725 424.996 86.2976 410.925 79.6907 397.489C88.7902 393.466 97.2713 387.938 105.816 382.869L143.619 360.479L264.424 289.879L480.599 163.95C520.797 141.017 560.749 117.657 600.449 93.8733C616.72 84.2906 633.336 75.1879 649.404 65.2774Z"/><defs><linearGradient id="gradient_1" gradientUnits="userSpaceOnUse" x1="571.22784" y1="543.56567" x2="356.27179" y2="256.93451"><stop offset="0" stop-color="#221C20"/><stop offset="1" stop-color="#4F4949"/></linearGradient></defs><path fill="url(#gradient_1)" d="M649.404 65.2774C655.447 74.7203 661.05 81.0446 670.525 87.1725C670.447 87.3408 670.364 87.5068 670.291 87.6774C669.961 88.4511 670.059 88.1443 670.011 89.052C673.176 93.5901 678.466 91.5722 677.245 99.1785C677.814 100.548 678.394 100.797 679.385 101.792C679.503 101.911 679.571 102.071 679.664 102.21C678.237 102.344 677.749 102.22 676.755 103.354C676.146 104.049 675.656 105.007 675.17 105.799L674.556 106.084L673.357 105.6C670.516 107.296 662.846 113.003 659.902 113.519C659.095 113.661 658.008 113.369 657.226 113.211L656.135 113.755C663.944 120.244 674.64 123.713 684.767 123.523C686.892 126.782 690.072 130.795 691.263 134.512C691.33 134.836 691.39 135.161 691.463 135.483C691.879 137.32 692.884 139.029 693.745 140.691C692.646 140.754 693.474 140.745 692.161 140.619C686.46 140.072 684.239 148.188 677.767 143.365L730.136 234.29C735.892 244.314 742.29 253.908 747.972 263.999C758.889 283.496 769.997 302.886 781.294 322.166C787.608 332.986 793.651 344.945 801.582 354.612C797.762 361.187 796.63 369.266 795.907 376.736C789.754 380.823 782.857 383.908 776.425 387.55C762.404 395.486 748.405 403.715 734.567 411.972C661.313 455.023 587.689 497.445 513.706 539.232L373.03 620.032L320.428 649.897C310.092 655.83 300.125 662.563 289.338 667.668C282.389 670.955 276.165 671.716 268.675 670.211C259.991 668.466 252.741 663.133 247.869 655.794C242.555 647.79 238.191 639.071 233.161 630.865C208.092 589.966 184.721 547.955 160.344 506.628C154.439 496.617 148.791 486.464 142.726 476.546C141.171 474.003 139.347 470.178 137.309 468.097C135.58 466.728 133.904 465.345 132.287 463.844L131.314 465.737C129.178 464.912 127.57 463.196 125.239 463.039L124.313 463.511C124.075 465.652 127.266 468.26 125.509 469.9C124.622 469.768 124.124 469.595 123.319 469.244C121.697 470.895 122.33 472.985 122.124 475.11C117.357 468.7 113.448 461.187 109.097 454.425C110.949 452.204 112.625 449.856 113.96 447.284C119.462 436.684 117.869 425.912 114.353 415.003C112.87 415.139 112.172 415.755 111.191 416.833C110.573 417.512 109.995 417.857 109.206 418.319C99.5132 423.986 100.151 432.269 95.6362 441.029C95.8539 441.166 96.0738 441.299 96.2893 441.44C97.2229 442.048 96.8721 441.78 97.6703 442.583C97.7327 445.177 98.3283 449.547 97.2315 451.815C96.1794 452.721 95.1573 453.436 93.9775 454.169C93.7731 455.376 94.1198 455.832 94.7798 456.8C95.1072 457.28 95.4688 457.737 95.8277 458.194C97.3354 458.343 97.8259 458.173 98.9348 459.258C99.1614 460.913 98.6084 462.064 97.6629 463.391C95.0175 467.105 90.8665 469.643 88.1245 473.267C84.5919 477.937 87.0257 483.156 80.706 485.604C80.4774 485.693 80.2793 485.847 80.059 485.954C78.4172 486.755 76.6662 486.507 75.0671 487.492C75.6282 488.325 77.1371 488.381 77.3524 489.146L77.0202 489.259C71.8267 488.092 67.9626 488.573 62.7752 489.351C58.6887 486.429 54.6274 476.477 52.3181 471.932L55.0904 470.598C69.6475 463.493 78.8081 455.241 84.0971 439.504C88.9725 424.996 86.2976 410.925 79.6907 397.489C88.7902 393.466 97.2713 387.938 105.816 382.869L143.619 360.479L264.424 289.879L480.599 163.95C520.797 141.017 560.749 117.657 600.449 93.8733C616.72 84.2906 633.336 75.1879 649.404 65.2774Z"/><path fill="#504B49" d="M649.404 65.2774C655.447 74.7203 661.05 81.0446 670.525 87.1725C670.447 87.3408 670.364 87.5068 670.291 87.6774C669.961 88.4511 670.059 88.1443 670.011 89.052C673.176 93.5901 678.466 91.5722 677.245 99.1785C677.814 100.548 678.394 100.797 679.385 101.792C679.503 101.911 679.571 102.071 679.664 102.21C678.237 102.344 677.749 102.22 676.755 103.354C676.146 104.049 675.656 105.007 675.17 105.799L674.556 106.084L673.357 105.6C670.516 107.296 662.846 113.003 659.902 113.519C659.095 113.661 658.008 113.369 657.226 113.211L656.135 113.755C651.633 110.562 648.555 106.233 645.232 101.915C612.041 120.326 579.637 140.321 546.877 159.494L295.141 307.166L160.05 386.154C150.066 392.041 140.005 397.796 129.87 403.418C124.528 406.451 118.497 409.375 113.668 413.177C113.899 414.467 113.674 413.857 114.353 415.003C112.87 415.139 112.172 415.755 111.191 416.833C110.573 417.512 109.995 417.857 109.206 418.319C99.5132 423.986 100.151 432.269 95.6362 441.029C95.8539 441.166 96.0738 441.299 96.2893 441.44C97.2229 442.048 96.8721 441.78 97.6703 442.583C97.7327 445.177 98.3283 449.547 97.2315 451.815C96.1794 452.721 95.1573 453.436 93.9775 454.169C93.7731 455.376 94.1198 455.832 94.7798 456.8C95.1072 457.28 95.4688 457.737 95.8277 458.194C97.3354 458.343 97.8259 458.173 98.9348 459.258C99.1614 460.913 98.6084 462.064 97.6629 463.391C95.0175 467.105 90.8665 469.643 88.1245 473.267C84.5919 477.937 87.0257 483.156 80.706 485.604C80.4774 485.693 80.2793 485.847 80.059 485.954C78.4172 486.755 76.6662 486.507 75.0671 487.492C75.6282 488.325 77.1371 488.381 77.3524 489.146L77.0202 489.259C71.8267 488.092 67.9626 488.573 62.7752 489.351C58.6887 486.429 54.6274 476.477 52.3181 471.932L55.0904 470.598C69.6475 463.493 78.8081 455.241 84.0971 439.504C88.9725 424.996 86.2976 410.925 79.6907 397.489C88.7902 393.466 97.2713 387.938 105.816 382.869L143.619 360.479L264.424 289.879L480.599 163.95C520.797 141.017 560.749 117.657 600.449 93.8733C616.72 84.2906 633.336 75.1879 649.404 65.2774Z"/><path fill="#F5CB76" d="M645.232 101.915C648.555 106.233 651.633 110.562 656.135 113.755C663.944 120.244 674.64 123.713 684.767 123.523C686.892 126.782 690.072 130.795 691.263 134.512C691.33 134.836 691.39 135.161 691.463 135.483C691.879 137.32 692.884 139.029 693.745 140.691C692.646 140.754 693.474 140.745 692.161 140.619C686.46 140.072 684.239 148.188 677.767 143.365C676.424 141.18 675.123 139.014 673.966 136.722C662.881 134.698 654.896 130.555 646.345 123.332C637.866 129.383 628.447 134.408 619.441 139.639C604.54 148.181 589.693 156.818 574.901 165.549L395.988 269.716L224.202 370.536L165.685 405.09C155.242 411.143 144.709 417.818 133.672 422.689C130.934 441.556 127.588 450.561 137.309 468.097C135.58 466.728 133.904 465.345 132.287 463.844L131.314 465.737C129.178 464.912 127.57 463.196 125.239 463.039L124.313 463.511C124.075 465.652 127.266 468.26 125.509 469.9C124.622 469.768 124.124 469.595 123.319 469.244C121.697 470.895 122.33 472.985 122.124 475.11C117.357 468.7 113.448 461.187 109.097 454.425C110.949 452.204 112.625 449.856 113.96 447.284C119.462 436.684 117.869 425.912 114.353 415.003C113.674 413.857 113.899 414.467 113.668 413.177C118.497 409.375 124.528 406.451 129.87 403.418C140.005 397.796 150.066 392.041 160.05 386.154L295.141 307.166L546.877 159.494C579.637 140.321 612.041 120.326 645.232 101.915Z"/><defs><linearGradient id="gradient_2" gradientUnits="userSpaceOnUse" x1="493.78613" y1="557.83221" x2="312.87103" y2="312.64401"><stop offset="0" stop-color="#312A2C"/><stop offset="1" stop-color="#504A48"/></linearGradient></defs><path fill="url(#gradient_2)" d="M648.813 133.443C654.403 136.379 659.933 138.508 665.945 140.386C667.917 143.718 670.003 147.03 671.689 150.518C677.756 160.268 683.169 170.495 688.874 180.464L719.88 234.524C730.241 252.735 741.435 270.46 751.787 288.68L772.952 325.13C778.84 335.414 784.493 347.162 792.179 356.196C790.951 360.31 789.603 364.426 788.594 368.599C778.937 375.464 768.338 381.007 758.061 386.876L718.045 410.097L554.379 503.814L363.354 613.857C349.233 621.865 335.181 629.993 321.199 638.239C310.492 644.556 299.802 651.272 288.739 656.932C283.404 659.661 277.952 662.036 271.804 661.08C264.278 659.909 258.793 655.409 254.558 649.305C247.598 639.275 241.727 628.012 235.555 617.466L198.248 553.134C190.859 540.354 183.119 527.778 175.691 515.018C172.727 509.926 169.112 504.641 166.647 499.314C159.202 486.523 151.474 473.875 144.269 460.947C140.129 453.516 137.691 447.114 140.219 438.519C141.626 433.732 143.897 429.04 148 426.03C153.738 421.82 160.763 418.454 166.931 414.843C181.212 406.35 195.595 398.03 210.077 389.885L321.736 324.579C398.863 278.867 476.258 233.608 553.915 188.804C585.548 170.456 616.618 150.758 648.813 133.443Z"/><defs><linearGradient id="gradient_3" gradientUnits="userSpaceOnUse" x1="756.85577" y1="384.8327" x2="576.72937" y2="176.07385"><stop offset="0" stop-color="#292325"/><stop offset="1" stop-color="#4C4544"/></linearGradient></defs><path fill="url(#gradient_3)" d="M546.95 200.55C561.889 190.764 577.67 181.988 593.076 172.943C611.824 161.937 630.389 150.703 649.387 140.127C653.482 142.718 657.126 144.209 661.841 145.337C663.485 148.604 665.191 151.803 667.234 154.839C673.949 167.426 681.497 179.649 688.561 192.052L750.844 300.038C762.05 319.189 773.893 338.043 784.648 357.446C784.078 358.839 782.762 363.979 781.892 364.727C777.819 368.224 772.046 371.013 767.416 373.803C753.332 382.29 738.942 390.18 724.764 398.492L697.095 414.982C691.641 418.241 686.069 421.971 680.233 424.494C680.07 424.564 679.903 424.627 679.739 424.693C669.504 407.882 659.974 390.688 649.955 373.756L592.08 276.351L562.346 226.555C557.22 218.014 551.458 209.42 546.95 200.55Z"/><path fill="#D69D4E" d="M652.868 219.184C657.961 218.589 663.667 219.67 668.018 222.419C672.473 225.233 675.355 229.962 676.334 235.091C677.476 241.08 675.673 246.834 672.25 251.762C664.86 262.403 650.971 269.358 638.475 271.515C631.91 271.689 625.774 271.217 620.227 267.283C616.128 264.376 613.511 260.234 612.819 255.24C611.97 249.117 614.305 243.05 618.017 238.252C625.808 228.18 640.355 220.715 652.868 219.184Z"/><path fill="#504B49" d="M652.159 224.591C656.699 224.321 660.744 224.494 664.835 226.838C667.968 228.634 670.05 231.406 670.922 234.905C671.924 238.926 671.285 242.884 669.119 246.405C663.157 256.095 648.42 263.229 637.73 265.815C633.423 266.334 629.105 266.06 625.142 264.142C621.997 262.621 619.723 260.165 618.753 256.784C617.547 252.576 618.347 248.049 620.532 244.306C626.417 234.225 641.282 227.316 652.159 224.591Z"/><path fill="#D69D4E" d="M713.422 329.673C717.595 329.264 722.126 329.476 726.006 331.177C734.85 335.053 739.354 345.998 742.715 354.385L736.996 355.064C734.936 350.145 732.653 344.851 729.19 340.742C726.433 337.47 723.229 335.718 718.932 335.462C707.725 334.793 694.391 342.73 686.493 350.091C683.696 352.698 681.013 355.982 680.972 359.992C680.928 364.2 683.548 368.273 686.433 371.138C690.589 375.264 694.074 376.165 699.661 376.026C700.937 375.636 702.238 375.259 703.463 374.728C706.01 373.624 708.636 372 709.61 369.26C710.795 365.924 709.302 363.304 707.974 360.321C709.456 359.118 711.099 358.151 712.714 357.141C713.861 359.116 715.009 361.055 715.622 363.276C716.539 366.6 716.35 369.936 714.489 372.903C711.708 377.333 706.07 380.521 701.051 381.592C696.046 382.66 691.266 381.497 687.006 378.744C681.477 375.17 676.623 368.781 675.383 362.276C674.588 358.108 675.557 354.434 678.019 351.021C685.708 340.36 700.522 331.721 713.422 329.673Z"/><path fill="#D69D4E" d="M683.283 272.579C686.578 272.35 689.62 272.819 692.605 274.285C701.042 278.433 707.408 290.136 710.166 298.752L704.61 299.999C702.907 296.138 700.991 292.145 698.845 288.509C695.537 282.904 692.234 279.936 685.946 278.276C682.967 278.98 679.966 279.826 677.723 282.03C670.336 289.287 682.022 302.796 681.659 312.371C681.517 316.131 680.032 319.289 677.233 321.801C672.273 326.252 667.271 326.749 660.93 326.465C660.038 326.241 659.156 325.978 658.287 325.677C648.638 322.252 641.875 306.304 637.61 297.607L642.465 295.647C646.488 301.941 651.958 315.821 658.568 319.312C661.906 321.075 667.544 320.768 671.026 319.519C672.938 318.834 674.453 317.658 675.276 315.767C678.14 309.184 673.045 302.005 670.793 296.002C669.063 291.393 668.664 286.496 670.867 281.966C673.352 276.858 678.118 274.286 683.283 272.579Z"/><path fill="#F5CB76" d="M617.182 171.886C617.339 171.933 617.501 171.964 617.653 172.026C620.672 173.268 624.69 182.023 626.189 185.029C628.807 183.839 631.192 182.345 633.628 180.83L636.794 185.515C624.081 192.108 611.74 199.995 599.258 207.075L590.504 212.058L587.756 207.496C598.488 200.499 610.004 194.413 621.172 188.126C619.173 183.53 615.782 179.505 614.836 174.519C615.302 172.883 615.814 172.822 617.182 171.886Z"/><defs><linearGradient id="gradient_4" gradientUnits="userSpaceOnUse" x1="563.01093" y1="534.98444" x2="397.29657" y2="312.52917"><stop offset="0" stop-color="#C4863E"/><stop offset="1" stop-color="#FCCF79"/></linearGradient></defs><path fill="url(#gradient_4)" d="M671.689 150.518C677.756 160.268 683.169 170.495 688.874 180.464L719.88 234.524C730.241 252.735 741.435 270.46 751.787 288.68L772.952 325.13C778.84 335.414 784.493 347.162 792.179 356.196C790.951 360.31 789.603 364.426 788.594 368.599C778.937 375.464 768.338 381.007 758.061 386.876L718.045 410.097L554.379 503.814L363.354 613.857C349.233 621.865 335.181 629.993 321.199 638.239C310.492 644.556 299.802 651.272 288.739 656.932C283.404 659.661 277.952 662.036 271.804 661.08C264.278 659.909 258.793 655.409 254.558 649.305C247.598 639.275 241.727 628.012 235.555 617.466L198.248 553.134C190.859 540.354 183.119 527.778 175.691 515.018C172.727 509.926 169.112 504.641 166.647 499.314C166.814 499.11 166.965 498.892 167.148 498.702C168.577 497.22 168.912 497.394 170.801 497.355C170.972 496.453 170.906 495.83 170.817 494.925C173.836 497.119 247.221 624.988 256.567 641.317C259.741 646.863 263.715 652.72 270.321 654.317C275.311 655.523 279.982 654.047 284.455 651.877C296.168 646.194 307.324 638.452 318.673 631.979L409.843 579.331L667.622 431.478L588.564 297.215C577.185 278.194 565.67 259.456 554.86 240.089C552.027 235.014 548.119 230.366 545.718 225.073C545.312 222.901 544.478 220.642 543.911 218.482C542.943 218.262 543.447 218.297 542.399 218.407C543.576 212.584 541.13 207.876 545.309 202.789C545.911 202.056 546.417 201.336 546.95 200.55C551.458 209.42 557.22 218.014 562.346 226.555L592.08 276.351L649.955 373.756C659.974 390.688 669.504 407.882 679.739 424.693C679.903 424.627 680.07 424.564 680.233 424.494C686.069 421.971 691.641 418.241 697.095 414.982L724.764 398.492C738.942 390.18 753.332 382.29 767.416 373.803C772.046 371.013 777.819 368.224 781.892 364.727C782.762 363.979 784.078 358.839 784.648 357.446C773.893 338.043 762.05 319.189 750.844 300.038L688.561 192.052C681.497 179.649 673.949 167.426 667.234 154.839C667.31 154.888 667.385 154.937 667.461 154.985C668.945 155.919 669.532 157.026 670.413 158.525L670.775 159.15C671.853 158.462 672.909 157.901 674.057 157.348L674.114 156.38C672.984 154.592 671.963 153.109 671.724 150.945C671.708 150.803 671.7 150.66 671.689 150.518Z"/><path fill="#F5CB76" d="M648.813 133.443C654.403 136.379 659.933 138.508 665.945 140.386C667.917 143.718 670.003 147.03 671.689 150.518C671.7 150.66 671.708 150.803 671.724 150.945C671.963 153.109 672.984 154.592 674.114 156.38L674.057 157.348C672.909 157.901 671.853 158.462 670.775 159.15L670.413 158.525C669.532 157.026 668.945 155.919 667.461 154.985C667.385 154.937 667.31 154.888 667.234 154.839C665.191 151.803 663.485 148.604 661.841 145.337C657.126 144.209 653.482 142.718 649.387 140.127C630.389 150.703 611.824 161.937 593.076 172.943C577.67 181.988 561.889 190.764 546.95 200.55C546.417 201.336 545.911 202.056 545.309 202.789C541.13 207.876 543.576 212.584 542.399 218.407C543.447 218.297 542.943 218.262 543.911 218.482C544.478 220.642 545.312 222.901 545.718 225.073C542.981 221.796 540.923 217.577 538.802 213.863L534.457 206.585C506.998 224.034 478.063 239.306 450.042 255.849L268.307 362.463L187.875 409.456L164.127 423.174C160.508 425.259 156.445 427.213 153.065 429.65C149.587 432.158 146.655 436.282 145.679 440.484C144.877 443.934 145.168 447.627 146.237 450.985C147.663 455.467 150.396 459.57 152.775 463.592C158.032 472.477 167.125 485.781 170.817 494.925C170.906 495.83 170.972 496.453 170.801 497.355C168.912 497.394 168.577 497.22 167.148 498.702C166.965 498.892 166.814 499.11 166.647 499.314C159.202 486.523 151.474 473.875 144.269 460.947C140.129 453.516 137.691 447.114 140.219 438.519C141.626 433.732 143.897 429.04 148 426.03C153.738 421.82 160.763 418.454 166.931 414.843C181.212 406.35 195.595 398.03 210.077 389.885L321.736 324.579C398.863 278.867 476.258 233.608 553.915 188.804C585.548 170.456 616.618 150.758 648.813 133.443Z"/><path fill="#F5CB76" d="M541.378 262.463C544.017 265.967 546.263 269.917 548.155 273.871C540.05 280.019 530.133 284.764 521.334 289.914C501.257 301.665 480.975 313.147 461.005 325.07L280.212 431.225C250.706 448.339 220.861 464.855 191.703 482.57C189.022 479.299 186.878 474.169 184.761 470.422C195.502 462.979 207.584 456.752 218.931 450.215L263.521 424.161C271.63 419.5 279.948 415.205 287.999 410.442C371.928 360.213 456.393 310.884 541.378 262.463Z"/><path fill="#D69D4E" d="M616.498 397.426C619.412 399.51 622.324 406.889 624.094 410.194C606.593 418.923 589.823 429.132 572.933 438.973L509.348 475.862C457.85 505.883 405.804 535.1 354.693 565.77C351.676 563.1 349.309 557.572 347.28 554.018C356.829 546.797 367.813 541.208 378.126 535.154L430.924 504.359L616.498 397.426Z"/><path fill="#F5CB76" d="M329.276 442.2C332.705 442.368 335.544 443.199 338.403 445.149C345.057 449.688 350.931 459.162 352.304 467.082C353.443 473.658 351.176 478.43 347.426 483.577C356.718 487.795 376.895 506.235 385.513 513.686C380.547 517.097 375.107 520.056 369.939 523.168C361.959 515.126 349.783 503.252 340.013 497.859C338.684 497.126 337.53 496.51 336.036 496.964C335.999 497.125 335.941 497.283 335.926 497.447C335.674 500.119 339.396 504.701 340.905 507.024C345.879 515.193 351.019 523.352 355.294 531.915C351.23 534.724 346.525 536.98 342.211 539.409C330.713 521.689 319.466 503.809 308.47 485.773C303.003 476.892 297.271 468.15 292.092 459.097C303.118 451.751 315.721 443.167 329.276 442.2Z"/><path fill="#504B49" d="M322.32 456.071C324.235 456.128 325.841 456.312 327.514 457.33C333.242 460.815 336.544 467.898 337.994 474.218C335.238 478.818 332.288 481.347 327.678 483.912L326.868 484.18C324.773 482.938 314.171 465.212 312.769 462.052C315.67 459.24 318.319 457.127 322.32 456.071Z"/><defs><linearGradient id="gradient_5" gradientUnits="userSpaceOnUse" x1="413.92575" y1="497.38812" x2="361.98654" y2="419.50787"><stop offset="0" stop-color="#E5AF57"/><stop offset="1" stop-color="#F9D37C"/></linearGradient></defs><path fill="url(#gradient_5)" d="M373.636 412.602C376.36 414.207 385.879 425.65 388.506 428.507C405.091 446.544 421.291 465.193 438.658 482.466C433.921 485.794 428.848 488.711 423.919 491.746C418.756 486.172 413.856 480.298 408.873 474.562L398.328 480.897L394.039 483.201C397.153 490.304 400.217 497.432 402.704 504.783C398.344 507.383 393.961 509.942 389.553 512.46C385.977 501.645 381.558 491.12 377.378 480.531C369.661 461.534 362.304 442.393 355.31 423.118C361.365 419.52 367.474 416.014 373.636 412.602Z"/><path fill="#504B49" d="M374.571 435.289C378.879 437.938 394.288 458.384 399.942 464.144C398.678 465.047 397.187 465.764 395.826 466.525C393.534 467.811 391.18 468.998 388.853 470.221C383.154 459.102 379.273 446.866 374.571 435.289Z"/><defs><linearGradient id="gradient_6" gradientUnits="userSpaceOnUse" x1="599.96985" y1="390.28247" x2="526.48846" y2="320.67801"><stop offset="0" stop-color="#E1A953"/><stop offset="1" stop-color="#F9D179"/></linearGradient></defs><path fill="url(#gradient_6)" d="M557.388 304.932C557.476 304.956 557.567 304.97 557.651 305.005C560.126 306.014 563.112 313.396 564.428 315.983C556.447 320.739 548.247 325.238 540.099 329.702C544.745 337.155 549.497 344.542 554.354 351.86C561.02 348.518 567.399 344.194 573.866 340.44C576.193 343.98 578.404 347.518 580.436 351.236C574.111 355.329 567.375 358.921 560.933 362.856C566.846 370.473 571.818 379.663 577.038 387.826C584.52 383.372 591.996 379.091 599.832 375.279C601.236 377.177 602.399 379.245 603.613 381.268L606.114 386.19C593.718 392.948 581.404 399.855 569.174 406.909C552.152 380.502 535.099 353.814 519.354 326.628C532.248 319.869 544.45 311.714 557.388 304.932Z"/><defs><linearGradient id="gradient_7" gradientUnits="userSpaceOnUse" x1="486.43204" y1="453.67023" x2="458.42371" y2="360.21881"><stop offset="0" stop-color="#E5B05A"/><stop offset="1" stop-color="#FBD37C"/></linearGradient></defs><path fill="url(#gradient_7)" d="M472.943 354.936C475.551 356.884 477.524 361.605 479.057 364.425C471.559 368.703 464.247 373.3 457.142 378.203C462.251 385.446 466.602 393.126 471.7 400.351C478.129 397.399 484.113 393.45 490.456 390.285C492.942 393.64 495.208 397.194 497.551 400.651C491.215 404.469 484.746 408.091 478.34 411.792C485.614 421.694 491.729 432.786 498.218 443.247L500.693 447.46C496.135 450.47 491.116 452.855 486.271 455.365C482.922 449.289 478.706 443.531 475.05 437.617C466.926 424.476 458.939 411.282 450.654 398.237C445.947 390.827 440.69 383.413 436.678 375.611C446.792 368.356 461.728 360.757 472.943 354.936Z"/><defs><linearGradient id="gradient_8" gradientUnits="userSpaceOnUse" x1="423.08112" y1="475.43698" x2="432.19559" y2="380.8078"><stop offset="0" stop-color="#E9B55B"/><stop offset="1" stop-color="#FBD77E"/></linearGradient></defs><path fill="url(#gradient_8)" d="M429.05 379.465C431.657 381.069 434.118 386.222 435.738 388.822C428.917 393.184 422.128 397.606 415.107 401.643C419.869 408.845 424.679 416.016 429.537 423.154C435.448 419.903 441.115 416.101 446.776 412.438C449.568 415.874 451.759 419.673 453.936 423.512L435.93 434.878C443.49 444.781 450.011 456.025 456.815 466.49L459.419 470.992C454.468 473.798 449.496 476.568 444.505 479.301C439 468.445 431.902 458.104 425.43 447.785L394.937 399.248C406.436 392.895 417.727 386.125 429.05 379.465Z"/><defs><linearGradient id="gradient_9" gradientUnits="userSpaceOnUse" x1="553.23242" y1="420.21533" x2="474.55441" y2="357.3111"><stop offset="0" stop-color="#E4AE54"/><stop offset="1" stop-color="#F9CF74"/></linearGradient></defs><path fill="url(#gradient_9)" d="M493.125 342.044C494.844 343.367 532.382 404.126 536.721 410.899C543.697 407.567 550.406 403.648 557.155 399.883C559.203 403.481 561.105 407.174 563.064 410.822C558.336 413.638 553.564 416.379 548.75 419.046L528.481 430.619C523.068 422.984 518.808 414.338 513.773 406.408L490.208 368.803C486.408 362.696 482.344 356.745 478.716 350.533C483.485 347.645 488.288 344.815 493.125 342.044Z"/><path fill="#F5CB76" d="M245.148 492.204C249.447 493.515 261.569 507.98 265.393 512.14C273.666 508.267 281.508 503.468 289.827 499.618C286.253 508.16 281.564 516.259 277.265 524.455C283.881 530.943 290.759 537.279 296.385 544.671C288.274 544.055 280.091 542.146 272.118 540.608C271.281 540.425 270.524 540.142 269.676 540.414C268.436 540.811 259.264 562.973 257.416 566.009C255.114 556.509 253.43 546.76 251.488 537.171C241.538 535.363 231.28 534.072 221.568 531.227C230.816 527.897 239.866 523.95 248.903 520.091C247.51 510.818 246.073 501.537 245.148 492.204Z"/><path fill="#F5CB76" d="M402.524 295.678C405.689 297.137 408.777 300.96 411.277 303.438C414.773 302.158 418.214 300.718 421.665 299.323C420.318 302.555 418.514 305.688 416.909 308.806C418.854 312.371 421.863 315.465 424.281 318.748C421.296 318.617 418.403 318.123 415.461 317.633C414.387 317.388 413.352 317.041 412.263 317.383C409.971 318.103 407.701 323.957 406.556 326.067C405.004 322.547 403.629 318.99 403.318 315.128C399.793 313.989 396.395 312.746 392.994 311.279L402.56 306.061C402.417 302.594 402.465 299.145 402.524 295.678Z"/><path fill="#F5CB76" d="M457.487 264.926C459.912 266.839 461.948 269.526 463.983 271.853C467.644 270.642 471.3 269.747 475.066 268.922C473.307 272.247 471.57 275.584 469.854 278.931C472.385 281.773 474.83 284.627 477.145 287.648C473.737 287.117 469.001 286.12 465.673 286.777L459.661 295.385C458.115 291.705 456.79 287.956 456.258 283.988L445.822 281C449.204 278.732 452.8 276.774 456.335 274.754C456.517 271.428 456.855 268.198 457.487 264.926Z"/><path fill="#F5CB76" d="M192.084 419.671C194.569 421.144 196.948 424.105 199.013 426.15C202.522 425.648 205.954 425.06 209.409 424.264C208.124 427.329 206.641 430.328 205.234 433.34C207.244 436.31 209.423 439.192 211.513 442.107C208.617 441.811 203.28 440.69 200.607 441.838C198.65 444.43 196.587 446.888 194.451 449.333C193.241 446.058 192.636 442.445 191.862 439.037C188.713 437.251 185.254 435.825 181.973 434.285L190.969 429.243C191.25 426.03 191.592 422.859 192.084 419.671Z"/><path fill="#F5CB76" d="M295.635 358.807C298.626 360.613 301.033 363.588 304.056 365.551C307.267 364.101 310.497 362.823 313.806 361.615C312.486 364.95 310.947 368.205 309.466 371.472C311.833 374.212 313.922 377.039 315.972 380.023C312.36 379.721 308.741 379.65 305.119 379.548C303.064 382.522 301.286 385.754 299.423 388.855C298.189 385.075 297.114 381.232 295.975 377.422C292.81 376.422 289.667 375.353 286.549 374.215C289.515 372.27 292.371 370.233 295.205 368.1C295.429 365.014 295.497 361.9 295.635 358.807Z"/><path fill="#F5CB76" d="M508.776 234.706C511.252 236.657 513.13 239.134 515.07 241.589C518.944 240.175 522.834 239.267 526.86 238.389C525.038 241.644 523.305 244.949 521.664 248.299C524.024 251.318 526.58 254.177 529.102 257.06C525.243 257.115 521.805 256.581 518.113 255.524C515.7 258.685 513.889 262.432 511.95 265.905L508.674 253.903C505.698 252.629 502.584 251.585 499.548 250.455L508.442 244.952C508.478 241.535 508.59 238.118 508.776 234.706Z"/><path fill="#F5CB76" d="M348.076 327.351C350.854 328.691 353.708 331.579 356.146 333.539C359.763 332.515 363.251 331.221 366.769 329.9C365.4 333.332 363.779 336.669 362.222 340.019C364.867 342.637 367.058 345.561 369.152 348.623C365.569 348.498 361.724 348.379 358.255 347.454C356.316 350.877 354.25 354.045 351.876 357.183C350.803 353.411 350.256 349.573 349.803 345.688L339.005 342.341C342.437 340.63 345.824 338.828 349.162 336.939C348.638 333.743 348.055 330.6 348.076 327.351Z"/><path fill="#F5CB76" d="M245.5 389.808C247.895 391.393 249.636 393.67 251.469 395.844C254.773 395.259 258.064 394.342 261.329 393.555C259.914 396.869 258.696 400.155 257.616 403.592L264.633 410.386C261.209 410.151 256.835 409.344 253.494 409.88C251.563 412.476 249.504 414.961 247.446 417.458C246.603 414.472 245.796 411.556 245.335 408.481C241.596 407.496 238.103 406.163 234.668 404.395C237.506 402.333 240.706 400.885 243.84 399.335C244.252 396.106 244.769 392.98 245.5 389.808Z"/><defs><linearGradient id="gradient_10" gradientUnits="userSpaceOnUse" x1="566.71783" y1="553.8385" x2="382.93396" y2="285.80096"><stop offset="0" stop-color="#BE7E36"/><stop offset="1" stop-color="#FCD17D"/></linearGradient></defs><path fill="url(#gradient_10)" d="M691.263 134.512C697.984 143.695 703.295 154.703 708.939 164.608L737.114 213.245L789.649 304.56C798.374 319.443 807.926 333.853 816.412 348.872C811.816 361.857 809.06 372.786 813.353 386.366C800.582 393.095 788.4 400.813 775.965 408.127L709.502 446.947L414.377 616.372L327.188 666.473C312.004 675.124 296.986 684.022 281.427 691.998C267.205 680.772 259.502 677.376 241.095 679.503C228.434 656.426 214.78 633.956 201.573 611.196C188.434 588.554 175.711 565.714 162.342 543.19C148.905 520.55 135.027 498.045 122.124 475.11C122.33 472.985 121.697 470.895 123.319 469.244C124.124 469.595 124.622 469.768 125.509 469.9C127.266 468.26 124.075 465.652 124.313 463.511L125.239 463.039C127.57 463.196 129.178 464.912 131.314 465.737L132.287 463.844C133.904 465.345 135.58 466.728 137.309 468.097C139.347 470.178 141.171 474.003 142.726 476.546C148.791 486.464 154.439 496.617 160.344 506.628C184.721 547.955 208.092 589.966 233.161 630.865C238.191 639.071 242.555 647.79 247.869 655.794C252.741 663.133 259.991 668.466 268.675 670.211C276.165 671.716 282.389 670.955 289.338 667.668C300.125 662.563 310.092 655.83 320.428 649.897L373.03 620.032L513.706 539.232C587.689 497.445 661.313 455.023 734.567 411.972C748.405 403.715 762.404 395.486 776.425 387.55C782.857 383.908 789.754 380.823 795.907 376.736C796.63 369.266 797.762 361.187 801.582 354.612C793.651 344.945 787.608 332.986 781.294 322.166C769.997 302.886 758.889 283.496 747.972 263.999C742.29 253.908 735.892 244.314 730.136 234.29L677.767 143.365C684.239 148.188 686.46 140.072 692.161 140.619C693.474 140.745 692.646 140.754 693.745 140.691C692.884 139.029 691.879 137.32 691.463 135.483C691.39 135.161 691.33 134.836 691.263 134.512Z"/><path fill="#504B49" d="M730.763 90.0421C733.509 93.6764 735.981 97.5264 738.516 101.31C735.857 102.902 734.107 104.401 732.399 106.98C732.325 106.536 732.326 106.365 732.083 105.918C731.602 105.03 730.76 104.007 729.786 103.826C728.868 104.778 727.931 105.919 726.712 106.479C725.638 106.971 724.53 107.414 723.453 107.914L722.942 109.569L722.442 109.401C721.561 108.05 721.678 106.862 721.676 105.311L721.68 104.622L720.643 103.761C717.798 104.147 718.969 108.418 717.271 110.248L716.58 110.202C716.535 109.128 717.009 107.825 717.252 106.766C716.538 106.899 716.831 106.803 716.126 107.116C715.955 107.192 715.785 107.273 715.615 107.351C711.431 104.273 705.202 106.75 700.382 105.253C699.542 104.471 699.388 104.612 699.251 103.402C700.093 102.879 700.839 102.347 701.594 101.706C701.381 100.824 701.365 100.46 701.691 99.6087C703.48 98.2086 706.678 98.3395 708.943 97.8531C714.151 96.7349 718.987 94.4069 724.144 93.2034C726.058 92.7569 727.847 92.6735 729.797 92.7123C730.036 92.7171 730.275 92.7268 730.514 92.7341L730.814 91.9131L730.768 92.5424C730.428 91.398 730.462 91.2052 730.763 90.0421Z"/><path fill="#1E181B" d="M182.249 855.037L182.526 855.749C181.243 858.13 176.967 857.787 176.739 860.155C177.985 860.084 178.507 859.656 179.538 859.026L180.155 859.317C179.705 860.002 179.248 860.573 178.741 861.211C177.414 862.882 177.962 864.691 178.245 866.614C178.386 867.57 178.431 868.122 178.155 869.049C177.005 865.651 175.933 862.228 174.939 858.781C177.55 857.864 179.925 856.53 182.249 855.037Z"/><path fill="#1E181B" d="M807.095 423.432C810.934 426.868 815.47 430.053 818.981 433.758C826.477 438.821 832.994 442.272 841.756 444.78C853.428 488.674 865.74 532.24 878.257 575.896C889.656 616.941 902.082 657.694 915.525 698.116C906.947 706.895 899.692 716.904 899.765 729.713C899.781 732.509 900.384 735.178 900.988 737.894C884.289 744.684 861.667 749.68 843.88 754.823C801.56 767.213 759.121 779.191 716.568 790.756L473.645 860.24L378.255 887.035C357.949 892.494 337.707 898.189 317.533 904.118C306.58 907.227 295.392 909.986 284.561 913.472C274.718 901.081 264.408 893.024 248.253 891.001C247.632 890.924 247.025 890.89 246.4 890.863C242.028 877.573 238.489 863.985 234.664 850.53C229.784 833.637 224.803 816.773 219.722 799.939C215.856 787.428 212.067 774.893 208.353 762.336C206.83 757.279 204.183 751.068 203.658 745.833C199.98 736.163 197.54 725.615 194.624 715.668C200.06 714.313 205.418 712.643 210.787 711.048C213.862 709.897 217.143 709.243 220.334 708.474C222.34 707.954 224.331 707.754 226.384 707.545C229.382 716.878 232.612 726.402 234.72 735.977C242.515 761.324 250.045 786.752 257.307 812.257L266.706 845.052C268.602 851.683 270.189 858.686 272.699 865.095C273.803 867.912 275.484 871.587 278.048 873.297C281.437 875.558 285.461 876.61 289.503 875.952C294.865 875.078 300.231 873.063 305.432 871.477C311.928 869.496 318.458 867.678 324.99 865.822L403.512 843.517L632.365 777.341L708.345 755.529C723.908 751.055 739.493 745.859 755.373 742.65C753.024 736.417 751.282 729.794 749.293 723.425L737.173 684.481C720.095 629.963 703.873 575.182 688.511 520.156C685.848 511.748 683.326 503.072 681.63 494.417C683.67 493.256 685.696 492.197 687.83 491.215C689.629 489.813 691.611 488.597 693.505 487.323C698.991 484.185 704.862 481.794 710.472 478.893L710.744 477.493C714.054 473.896 742.263 458.961 748.467 455.62C751.319 454.085 754.662 454.274 757.24 452.674C759.772 449.891 764.974 447.687 768.322 445.871C779.466 439.828 797.799 431.494 807.095 423.432Z"/><path fill="#1E181B" d="M767.255 469.79C781.94 465.348 797.082 462.318 811.874 458.198C814.269 464.384 815.822 470.873 817.655 477.241C821.204 489.365 824.642 501.521 827.967 513.708L859.513 624.844C864.233 641.213 869.039 657.557 873.929 673.876C876.538 682.631 880.311 691.968 881.336 701.043C879.001 706.065 876.918 708.444 871.71 710.35C860.904 714.305 848.976 716.556 837.855 719.688L766.641 739.767C763.451 726.43 758.727 713.519 754.788 700.393C747.182 674.223 739.3 648.134 731.143 622.131C720.538 587.711 711.686 552.653 700.3 518.467C698.014 509.179 694.872 500.082 692.384 490.834L692.568 489.315L693.787 488.538L693.505 487.323C698.991 484.185 704.862 481.794 710.472 478.893C726.169 474.381 741.922 470.061 757.726 465.935C765.27 463.977 772.95 461.612 780.628 460.282C780.448 460.445 780.273 460.614 780.088 460.771C776.754 463.594 755.83 466.304 754.861 467.868C754.723 468.091 754.784 468.387 754.723 468.643C754.457 469.74 754.06 470.181 753.332 470.998L753.23 471.987C754.345 472.539 754.976 472.152 756.096 471.753C758.008 471.072 759.459 470.254 761.535 470.362C762.632 471.024 763.065 471.254 763.523 472.549C764.218 474.516 764.331 478.694 763.959 480.755L766.463 489.04C754.678 492.531 742.907 496.25 731.045 499.461L732.292 504.468C744.316 501.194 756.226 497.453 768.305 494.391C774.048 500.657 778.417 503.475 786.97 504.436L783.397 497.839C778.393 496.469 775.118 494.748 772.399 490.042C769.123 484.372 767.572 476.272 767.255 469.79Z"/><defs><linearGradient id="gradient_11" gradientUnits="userSpaceOnUse" x1="715.57184" y1="467.78705" x2="734.02679" y2="488.50784"><stop offset="0" stop-color="#6D3F15"/><stop offset="1" stop-color="#8A5525"/></linearGradient></defs><path fill="url(#gradient_11)" d="M710.472 478.893C726.169 474.381 741.922 470.061 757.726 465.935C765.27 463.977 772.95 461.612 780.628 460.282C780.448 460.445 780.273 460.614 780.088 460.771C776.754 463.594 755.83 466.304 754.861 467.868C754.723 468.091 754.784 468.387 754.723 468.643C754.457 469.74 754.06 470.181 753.332 470.998L753.23 471.987C754.345 472.539 754.976 472.152 756.096 471.753C758.008 471.072 759.459 470.254 761.535 470.362C762.632 471.024 763.065 471.254 763.523 472.549C764.218 474.516 764.331 478.694 763.959 480.755C763.137 477.545 762.392 474.316 761.725 471.07C746.707 474.965 731.721 478.98 716.768 483.114C709.434 485.077 701.345 487.893 693.787 488.538L693.505 487.323C698.991 484.185 704.862 481.794 710.472 478.893Z"/><path fill="#D69D4E" d="M776.839 530.157C776.965 530.134 777.09 530.103 777.217 530.086C784.75 529.096 793.566 530.242 799.723 534.939C803.985 538.173 806.705 543.038 807.226 548.363C807.854 554.411 805.802 560.147 802.078 564.876C794.641 574.318 782.621 578.364 771.103 579.811C763.631 580.482 754.802 579.185 748.595 574.727C744.24 571.588 741.336 566.825 740.541 561.516C739.722 555.929 741.744 550.663 745.04 546.221C752.382 536.324 765.122 531.998 776.839 530.157Z"/><path fill="#1E181B" d="M777.846 535.172C783.706 534.398 790.829 535.259 795.726 538.719C798.951 540.959 801.07 544.466 801.555 548.363C802.226 553.465 800.25 558.608 797.054 562.528C790.396 570.698 780.199 573.819 770.12 574.923C763.983 575.204 757.277 574.031 752.085 570.592C748.864 568.459 746.641 565.382 745.957 561.553C745.185 557.231 746.64 553.154 749.198 549.691C755.747 540.824 767.302 536.574 777.846 535.172Z"/><path fill="#D69D4E" d="M813.682 653.206C820.828 652.864 828.458 654.765 834.062 659.323C838.829 663.201 840.954 668.036 841.489 674.039C841.722 676.662 841.91 681.812 839.923 683.865C839.417 684.388 838.947 684.268 838.273 684.333C837.719 684.065 837.043 683.967 836.613 683.528C836.557 683.472 837.202 670.426 834.103 666.495C830.657 662.123 824.607 659.683 819.234 658.877C809.689 657.445 797.887 660.41 790.233 666.315C785.941 669.626 782.75 674.293 782.103 679.758C781.613 683.9 782.642 688.85 785.329 692.122C788.21 695.629 792.13 696.568 796.398 697.09C802.037 696.829 806.756 695.823 812.079 693.949C810.521 690.238 808.673 685.832 808.163 681.835C807.954 680.198 808.098 679.268 809.094 677.964C810.305 677.643 810.414 677.523 811.551 678.003C814.616 683.662 816.274 690.87 818.212 697.025C813.013 699.43 807.443 701.358 801.735 702.053C795.404 702.823 788.532 701.805 783.48 697.648C779.332 694.236 777.231 689.064 776.714 683.812C776.108 677.658 777.934 671.817 781.864 667.048C789.65 657.595 801.964 654.197 813.682 653.206Z"/><path fill="#D69D4E" d="M796.349 589.562C801.616 589.16 806.497 589.685 810.879 592.901C819.767 599.425 821.258 611.81 822.855 621.872C820.711 621.971 818.572 622.225 816.437 622.44C816.664 615.223 816.682 608.564 812.652 602.19C810.411 598.646 807.496 595.502 803.249 594.62C799.749 593.892 795.296 594.618 792.368 596.723C784.156 602.626 792.921 616.829 791.073 625.26C790.077 629.803 787.752 632.379 783.983 634.843L783.354 635.248C782.183 635.714 780.973 636.153 779.74 636.42C775.447 637.351 770.981 636.662 767.362 634.134C758.798 628.151 756.919 615.556 754.998 606.061L760.686 605.414C760.951 609.558 761.443 613.73 762.618 617.723C764.054 622.604 766.904 628.166 771.637 630.533C773.765 631.598 776.216 632.189 778.521 631.373C794.265 625.803 779.561 607.675 785.648 596.733C787.991 592.521 792.006 590.932 796.349 589.562Z"/><defs><linearGradient id="gradient_12" gradientUnits="userSpaceOnUse" x1="585.55725" y1="846.591" x2="509.49451" y2="497.66064"><stop offset="0" stop-color="#B27635"/><stop offset="1" stop-color="#E4AF5F"/></linearGradient></defs><path fill="url(#gradient_12)" d="M813.807 443.9C812.295 441.496 809.115 440.713 807.844 438.467C808.648 436.353 810.473 437.011 811.292 434.903L812.632 434.597C812.687 433.906 812.697 434.24 812.564 433.414C812.53 433.199 812.491 432.985 812.454 432.77L813.116 431.916C815.239 431.638 816.489 433.758 818.497 433.813C818.659 433.818 818.82 433.777 818.981 433.758C826.477 438.821 832.994 442.272 841.756 444.78C853.428 488.674 865.74 532.24 878.257 575.896C889.656 616.941 902.082 657.694 915.525 698.116C906.947 706.895 899.692 716.904 899.765 729.713C899.781 732.509 900.384 735.178 900.988 737.894C884.289 744.684 861.667 749.68 843.88 754.823C801.56 767.213 759.121 779.191 716.568 790.756L473.645 860.24L378.255 887.035C357.949 892.494 337.707 898.189 317.533 904.118C306.58 907.227 295.392 909.986 284.561 913.472C274.718 901.081 264.408 893.024 248.253 891.001C247.632 890.924 247.025 890.89 246.4 890.863C242.028 877.573 238.489 863.985 234.664 850.53C229.784 833.637 224.803 816.773 219.722 799.939C215.856 787.428 212.067 774.893 208.353 762.336C206.83 757.279 204.183 751.068 203.658 745.833C199.98 736.163 197.54 725.615 194.624 715.668C200.06 714.313 205.418 712.643 210.787 711.048C214.275 723.367 218.669 736.088 221.157 748.626C224.165 754.275 227.349 769.207 229.318 776.212C234.431 794.402 240.285 812.366 245.527 830.512C249.34 843.711 253.964 865.796 260.131 877.313C263.643 883.872 272.284 889.372 279.313 891.385C283.313 892.531 287.451 892.9 291.527 891.919C322.105 884.565 352.407 875.051 382.576 866.159L474.53 839.875C577.322 811.558 679.84 782.256 782.069 751.971C807.177 744.51 832.478 737.726 857.61 730.355C866.546 727.734 877.638 726.056 885.593 721.318C893.265 716.749 896.025 709.097 898.112 700.957C890.525 672.883 882.017 644.946 873.884 617.023L844.705 513.618C841.237 501.16 837.683 488.727 834.04 476.32C831.68 468.151 828.799 459.624 827.678 451.177C822.758 449.334 818.232 446.7 813.807 443.9Z"/><defs><linearGradient id="gradient_13" gradientUnits="userSpaceOnUse" x1="207.72267" y1="711.78479" x2="203.56578" y2="725.02063"><stop offset="0" stop-color="#5D3D20"/><stop offset="1" stop-color="#865E36"/></linearGradient></defs><path fill="url(#gradient_13)" d="M194.624 715.668C200.06 714.313 205.418 712.643 210.787 711.048C214.275 723.367 218.669 736.088 221.157 748.626C216.982 744.587 217.407 735.381 215.219 730.058C214.908 729.3 214.359 728.051 213.635 727.657C210.305 725.845 203.029 725.612 198.275 723.341L197.639 723.03C199.315 729.192 204.282 739.679 203.658 745.833C199.98 736.163 197.54 725.615 194.624 715.668Z"/><defs><linearGradient id="gradient_14" gradientUnits="userSpaceOnUse" x1="580.55127" y1="807.08411" x2="509.73303" y2="529.74774"><stop offset="0" stop-color="#BD7E39"/><stop offset="1" stop-color="#D49B50"/></linearGradient></defs><path fill="url(#gradient_14)" d="M810.453 452.325C813.304 453.214 816.478 453.725 818.005 456.59C821.507 463.162 823.71 474.618 825.811 482.034L843.192 544.05C850.665 569.888 857.713 595.933 865.463 621.687L880.494 673.156C882.687 680.739 885.384 688.346 887.278 695.99C888.072 699.194 888.202 702.065 887.248 705.256C886.01 709.395 882.886 712.963 879.023 714.861C874.184 717.238 868.115 718.38 862.903 719.798L834.643 727.471C798.236 738.014 761.767 748.34 725.238 758.45L450.191 836.386L325.021 872.193C314.426 875.146 303.953 878.874 293.316 881.584C288.449 882.823 284.008 882.739 279.256 881.03C274.037 879.153 269.7 874.71 267.481 869.64C264.45 862.716 262.737 854.646 260.661 847.362C256.751 833.319 252.742 819.304 248.633 805.318L235.448 761.24C233.356 754.301 230.127 746.201 229.134 739.075C225.589 729.142 223.157 718.639 220.334 708.474C222.34 707.954 224.331 707.754 226.384 707.545C229.382 716.878 232.612 726.402 234.72 735.977C242.515 761.324 250.045 786.752 257.307 812.257L266.706 845.052C268.602 851.683 270.189 858.686 272.699 865.095C273.803 867.912 275.484 871.587 278.048 873.297C281.437 875.558 285.461 876.61 289.503 875.952C294.865 875.078 300.231 873.063 305.432 871.477C311.928 869.496 318.458 867.678 324.99 865.822L403.512 843.517L632.365 777.341L708.345 755.529C723.908 751.055 739.493 745.859 755.373 742.65C753.024 736.417 751.282 729.794 749.293 723.425L737.173 684.481C720.095 629.963 703.873 575.182 688.511 520.156C685.848 511.748 683.326 503.072 681.63 494.417C683.67 493.256 685.696 492.197 687.83 491.215C689.629 489.813 691.611 488.597 693.505 487.323L693.787 488.538L692.568 489.315L692.384 490.834C694.872 500.082 698.014 509.179 700.3 518.467C711.686 552.653 720.538 587.711 731.143 622.131C739.3 648.134 747.182 674.223 754.788 700.393C758.727 713.519 763.451 726.43 766.641 739.767L837.855 719.688C848.976 716.556 860.904 714.305 871.71 710.35C876.918 708.444 879.001 706.065 881.336 701.043C880.311 691.968 876.538 682.631 873.929 673.876C869.039 657.557 864.233 641.213 859.513 624.844L827.967 513.708C824.642 501.521 821.204 489.365 817.655 477.241C815.822 470.873 814.269 464.384 811.874 458.198C797.082 462.318 781.94 465.348 767.255 469.79C767.572 476.272 769.123 484.372 772.399 490.042C775.118 494.748 778.393 496.469 783.397 497.839L786.97 504.436C778.417 503.475 774.048 500.657 768.305 494.391C756.226 497.453 744.316 501.194 732.292 504.468L731.045 499.461C742.907 496.25 754.678 492.531 766.463 489.04L763.959 480.755C764.331 478.694 764.218 474.516 763.523 472.549C763.065 471.254 762.632 471.024 761.535 470.362C759.459 470.254 758.008 471.072 756.096 471.753C754.976 472.152 754.345 472.539 753.23 471.987L753.332 470.998C754.06 470.181 754.457 469.74 754.723 468.643C754.784 468.387 754.723 468.091 754.861 467.868C755.83 466.304 776.754 463.594 780.088 460.771C780.273 460.614 780.448 460.445 780.628 460.282C790.482 457.358 800.507 454.922 810.453 452.325Z"/><defs><linearGradient id="gradient_15" gradientUnits="userSpaceOnUse" x1="686.9939" y1="490.64075" x2="689.94324" y2="506.77936"><stop offset="0" stop-color="#583319"/><stop offset="1" stop-color="#895626"/></linearGradient></defs><path fill="url(#gradient_15)" d="M693.505 487.323L693.787 488.538L692.568 489.315L692.384 490.834C694.872 500.082 698.014 509.179 700.3 518.467C700.108 518.288 699.907 518.118 699.724 517.93C696.926 515.044 697.071 508.517 695.174 504.864C692.185 505.465 689.709 507.166 686.793 507.943L686.849 509.275C688.292 509.458 690.092 509.428 691.267 510.35L690.991 511.114C689.807 511.483 688.978 511.434 687.762 511.36C687.804 514.33 688.649 517.206 688.511 520.156C685.848 511.748 683.326 503.072 681.63 494.417C683.67 493.256 685.696 492.197 687.83 491.215C689.629 489.813 691.611 488.597 693.505 487.323Z"/><path fill="#57371C" d="M693.505 487.323L693.787 488.538L692.568 489.315L692.384 490.834L691.21 490.305C690.314 490.634 689.49 490.918 688.548 491.096C688.309 491.141 688.069 491.175 687.83 491.215C689.629 489.813 691.611 488.597 693.505 487.323Z"/><defs><linearGradient id="gradient_16" gradientUnits="userSpaceOnUse" x1="224.26604" y1="708.33594" x2="225.50385" y2="717.88824"><stop offset="0" stop-color="#6D4526"/><stop offset="1" stop-color="#885E31"/></linearGradient></defs><path fill="url(#gradient_16)" d="M220.334 708.474C222.34 707.954 224.331 707.754 226.384 707.545C229.382 716.878 232.612 726.402 234.72 735.977L233.894 735.606C232.22 731.165 231.266 722.218 228.826 718.791C227.349 718.18 226.567 718.189 225.021 718.306L224.211 718.898C225.43 723.335 229.524 735.116 229.134 739.075C225.589 729.142 223.157 718.639 220.334 708.474Z"/><defs><linearGradient id="gradient_17" gradientUnits="userSpaceOnUse" x1="782.4884" y1="435.98688" x2="789.72955" y2="447.55701"><stop offset="0" stop-color="#774D29"/><stop offset="1" stop-color="#926736"/></linearGradient></defs><path fill="url(#gradient_17)" d="M807.095 423.432C810.934 426.868 815.47 430.053 818.981 433.758C818.82 433.777 818.659 433.818 818.497 433.813C816.489 433.758 815.239 431.638 813.116 431.916L812.454 432.77C812.491 432.985 812.53 433.199 812.564 433.414C812.697 434.24 812.687 433.906 812.632 434.597L811.292 434.903C810.473 437.011 808.648 436.353 807.844 438.467C809.115 440.713 812.295 441.496 813.807 443.9C811.06 442.4 808.428 440.795 805.8 439.094C790.075 444.841 773.31 447.974 757.24 452.674C759.772 449.891 764.974 447.687 768.322 445.871C779.466 439.828 797.799 431.494 807.095 423.432Z"/><path fill="#D69D4E" d="M713.525 696.105L714.72 695.956C717.237 697.898 718.707 706.412 719.596 709.649C620.495 738.881 521.003 766.767 421.146 793.299L419.847 793.313C417.291 790.608 416.313 783.265 415.41 779.554C426.887 776.087 438.565 773.273 450.096 769.981C500.24 755.635 550.504 741.713 600.883 728.216C622.805 722.18 644.691 716.016 666.541 709.724C682.16 705.127 697.681 699.878 713.525 696.105Z"/><path fill="#D69D4E" d="M383.604 673.476C391.48 671.107 399.474 668.351 407.527 666.669C414.086 665.299 421.918 664.6 427.73 668.593C433.58 672.613 435.914 681.04 437.204 687.663C438.835 692.447 438.625 697.283 436.347 701.821C435.384 703.74 433.921 705.378 432.391 706.866C442.635 721.481 451.773 737.037 461.547 751.986C455.359 753.869 449.14 755.683 442.987 757.677C439.449 751.485 423.152 721.472 418.984 719.881C418.709 719.776 418.404 719.776 418.114 719.723C417.251 720.713 417.303 721.308 417.414 722.569C417.951 728.644 421.025 735.47 422.818 741.334C424.803 747.826 426.507 754.39 428.218 760.958L411.384 765.734C405.093 745.291 399.494 724.538 392.778 704.241C390.404 693.832 386.05 683.877 383.604 673.476Z"/><defs><linearGradient id="gradient_18" gradientUnits="userSpaceOnUse" x1="398.35522" y1="665.30554" x2="411.36087" y2="685.70831"><stop offset="0" stop-color="#67472A"/><stop offset="1" stop-color="#C29252"/></linearGradient></defs><path fill="url(#gradient_18)" d="M383.604 673.476C391.48 671.107 399.474 668.351 407.527 666.669C414.086 665.299 421.918 664.6 427.73 668.593C433.58 672.613 435.914 681.04 437.204 687.663L436.665 688.159C434.999 682.557 433.596 678.38 431.103 673.073C426.76 675.669 422.828 679.056 418.312 681.318C420.719 686.527 424.165 694.584 422.097 700.26C422.041 700.413 421.981 700.565 421.923 700.717L421.457 700.845L421.256 700.686C418.435 703.231 415.537 704.54 412.051 705.899L408.498 695.122C406.708 693.688 406.803 690.639 405.316 689.804C401.295 691.658 398.488 694.793 394.213 696.577C392.81 698.561 392.546 699.817 392.835 702.23C392.919 702.932 392.875 703.543 392.778 704.241C390.404 693.832 386.05 683.877 383.604 673.476Z"/><path fill="#1E181B" d="M404.01 681.217C408.022 680.264 411.952 678.965 415.759 681.337C419.007 683.359 420.456 687.341 421.135 690.923C421.797 694.414 422.182 697.191 421.256 700.686C418.435 703.231 415.537 704.54 412.051 705.899L408.498 695.122C406.967 690.515 405.305 685.894 404.01 681.217Z"/><defs><linearGradient id="gradient_19" gradientUnits="userSpaceOnUse" x1="491.22" y1="745.78748" x2="475.81253" y2="649.88745"><stop offset="0" stop-color="#C78D3C"/><stop offset="1" stop-color="#EDBF6F"/></linearGradient></defs><path fill="url(#gradient_19)" d="M473.752 649.614L474.291 649.541C478.635 651.758 514.167 723.742 518.962 734.568L501.696 739.878L492.846 721.274L487.3 722.854C484.047 723.989 480.654 724.873 477.352 725.867L480.018 746.502C474.565 748.4 468.958 749.988 463.454 751.745C462.22 741.458 461.73 730.98 460.869 720.65C459.918 709.251 458.621 697.878 457.731 686.476C456.912 675.986 456.442 665.589 455.007 655.152C461.292 653.459 467.521 651.496 473.752 649.614Z"/><path fill="#1E181B" d="M471.345 676.651L471.769 673.806C476 685.046 481.414 695.898 486.858 706.593L475.85 709.905C474.568 698.847 473.538 687.565 471.345 676.651Z"/><path fill="#57371C" d="M471.345 676.651C471.019 675.154 470.498 673.332 470.945 671.862L471.769 673.806L471.345 676.651Z"/><defs><linearGradient id="gradient_20" gradientUnits="userSpaceOnUse" x1="707.09497" y1="678.9621" x2="647.09033" y2="600.77942"><stop offset="0" stop-color="#D3953D"/><stop offset="1" stop-color="#FACD74"/></linearGradient></defs><path fill="url(#gradient_20)" d="M682.837 590.013L683.723 590.005C686.074 591.563 687.763 599.163 688.685 602.053C680.266 605.148 671.539 607.779 662.949 610.354C665.62 618.169 667.978 626.103 670.432 633.989C676.804 631.678 683.362 629.864 689.887 628.043C691.044 632.238 692.418 636.366 693.76 640.504L674.471 646.5C676.656 655.565 679.773 664.477 682.463 673.41C690.575 671.592 698.619 669.097 706.67 666.989L709.322 674.373L710.868 678.492C697.259 682.141 683.787 686.454 670.297 690.525C666.376 678.316 662.852 665.963 659.091 653.701C653.812 636.493 648.372 619.314 643.832 601.892C656.614 597.419 669.864 593.92 682.837 590.013Z"/><defs><linearGradient id="gradient_21" gradientUnits="userSpaceOnUse" x1="587.37592" y1="714.99854" x2="571.46912" y2="620.96558"><stop offset="0" stop-color="#DBA047"/><stop offset="1" stop-color="#FACA70"/></linearGradient></defs><path fill="url(#gradient_21)" d="M588.313 617.547L589.703 617.44C592.116 618.999 593.8 627.216 594.682 630.112C586.401 632.337 578.227 634.684 570.055 637.291C571.914 645.314 574.89 653.005 576.972 660.966C584.248 659.379 591.379 657.108 598.52 655.005C600.234 659.159 601.388 663.67 602.736 667.962C595.321 670.097 587.861 672.088 580.42 674.132L590.256 704.625C591.255 707.744 592.153 710.827 592.865 714.024C587.333 715.252 581.889 716.808 576.431 718.321C571.442 705.019 567.974 690.751 564.101 677.083L549.956 628.457C562.824 625.109 575.532 621.207 588.313 617.547Z"/><defs><linearGradient id="gradient_22" gradientUnits="userSpaceOnUse" x1="558.89587" y1="717.12354" x2="509.75809" y2="639.06079"><stop offset="0" stop-color="#DBA148"/><stop offset="1" stop-color="#F8CA72"/></linearGradient></defs><path fill="url(#gradient_22)" d="M543.457 630.574C545.054 631.468 546.817 641.747 547.634 643.958C539.229 646.928 530.515 648.855 521.845 650.869C524.607 658.839 527.092 666.817 529.016 675.035C535.621 673.419 542.174 671.475 548.727 669.656C550.251 673.884 551.316 678.261 552.46 682.604C545.928 684.342 538.536 685.707 532.373 688.412C536.954 699.781 540.664 711.434 544.412 723.096C544.98 724.458 545.366 726.001 545.822 727.411C540.14 728.78 534.528 730.469 528.907 732.068C522.202 712.6 516.985 692.706 511.308 672.928C508.398 662.79 504.949 652.82 502.091 642.664C515.737 638.248 529.7 634.655 543.457 630.574Z"/><defs><linearGradient id="gradient_23" gradientUnits="userSpaceOnUse" x1="303.91611" y1="737.51642" x2="314.42105" y2="782.19897"><stop offset="0" stop-color="#A27643"/><stop offset="1" stop-color="#F1BC63"/></linearGradient></defs><path fill="url(#gradient_23)" d="M294.205 732.084C294.814 728.334 294.665 724.249 294.802 720.444C294.419 719.923 294.083 719.544 293.587 719.115C293.431 718.98 293.27 718.852 293.112 718.72C293.832 717.259 298.246 717.788 301.109 714.833C301.903 714.014 302.318 713.432 303.447 713.11C306.477 714.59 310.945 726.514 312.607 730.127C313.496 731.759 313.797 732.928 315.454 733.828L317.641 733.674C325.728 732.174 333.867 730.727 342.05 729.871C336.183 737.938 329.444 745.207 322.729 752.564C328.006 760.961 334.585 769.027 338.967 777.91C329.449 774.434 320.114 770.193 310.548 766.92C305.05 774.598 299.032 781.903 293.13 789.272C292.913 779.834 293.086 770.391 293.648 760.967C284.943 756.985 276.272 752.728 267.246 749.524C273.419 745.884 283.132 743.16 290.229 741.852C291.215 741.558 292.001 741.401 292.795 740.716C294.572 739.183 294.145 734.271 294.205 732.084Z"/><defs><linearGradient id="gradient_24" gradientUnits="userSpaceOnUse" x1="301.7583" y1="728.98486" x2="306.13464" y2="744.17303"><stop offset="0" stop-color="#64482F"/><stop offset="1" stop-color="#A77B45"/></linearGradient></defs><path fill="url(#gradient_24)" d="M294.205 732.084C294.814 728.334 294.665 724.249 294.802 720.444C294.419 719.923 294.083 719.544 293.587 719.115C293.431 718.98 293.27 718.852 293.112 718.72C293.832 717.259 298.246 717.788 301.109 714.833C301.903 714.014 302.318 713.432 303.447 713.11C306.477 714.59 310.945 726.514 312.607 730.127C313.496 731.759 313.797 732.928 315.454 733.828L317.641 733.674L318.064 734.283C318.98 734.166 319.609 733.923 320.481 734.269C317.579 739.87 311.927 742.743 306.13 744.624C301.644 746.08 295.406 747.036 291.054 744.796C290.195 744.353 289.664 743.832 289.125 743.046L290.229 741.852C291.215 741.558 292.001 741.401 292.795 740.716C294.572 739.183 294.145 734.271 294.205 732.084Z"/><defs><linearGradient id="gradient_25" gradientUnits="userSpaceOnUse" x1="299.26321" y1="715.53796" x2="302.6427" y2="729.33252"><stop offset="0" stop-color="#35241E"/><stop offset="1" stop-color="#63472E"/></linearGradient></defs><path fill="url(#gradient_25)" d="M294.205 732.084C294.814 728.334 294.665 724.249 294.802 720.444C294.419 719.923 294.083 719.544 293.587 719.115C293.431 718.98 293.27 718.852 293.112 718.72C293.832 717.259 298.246 717.788 301.109 714.833C301.903 714.014 302.318 713.432 303.447 713.11C306.477 714.59 310.945 726.514 312.607 730.127C311.746 729.258 310.929 728.448 309.957 727.701C306.178 728.588 296.795 729.57 294.205 732.084Z"/><defs><linearGradient id="gradient_26" gradientUnits="userSpaceOnUse" x1="651.64801" y1="700.73828" x2="590.04205" y2="621.703"><stop offset="0" stop-color="#CD8F38"/><stop offset="1" stop-color="#FBCC71"/></linearGradient></defs><path fill="url(#gradient_26)" d="M611.209 610.52C611.459 610.687 611.747 610.807 611.961 611.019C612.995 612.049 634.184 681.085 636.153 687.901C644.551 685.551 652.935 683.154 661.306 680.711L665.204 692.458L650.17 696.791C641.476 698.929 632.735 702.503 623.876 703.731C619.609 693.294 616.902 681.81 613.661 670.99C607.995 652.403 602.229 633.847 596.365 615.321C601.343 613.815 606.292 612.215 611.209 610.52Z"/><defs><linearGradient id="gradient_27" gradientUnits="userSpaceOnUse" x1="595.58698" y1="564.8963" x2="607.26495" y2="586.05292"><stop offset="0" stop-color="#A77338"/><stop offset="1" stop-color="#DCA760"/></linearGradient></defs><path fill="url(#gradient_27)" d="M651.01 552.196C659.177 550.251 667.242 547.348 675.243 544.795C677.167 549.465 679.123 554.15 680.047 559.141C666.072 563.761 651.909 567.753 637.824 572.019C630.817 574.14 622.845 577.532 615.654 578.371C596.68 584.539 577.079 588.959 557.991 594.798C556.616 594.618 555.722 594.624 554.382 594.983L551.382 595.791L551.322 594.943C551.885 593.456 553.147 592.29 554.217 591.143C560.347 584.568 566.921 582.11 574.665 578.154C576.409 577.263 578.947 575.968 579.597 573.999L578.717 573.194C602.609 565.532 626.977 559.416 651.01 552.196Z"/><path fill="#D69D4E" d="M651.01 552.196C659.177 550.251 667.242 547.348 675.243 544.795C677.167 549.465 679.123 554.15 680.047 559.141C666.072 563.761 651.909 567.753 637.824 572.019C630.817 574.14 622.845 577.532 615.654 578.371C614.596 578.375 613.56 578.347 612.519 578.558C611.77 578.709 611.083 578.771 610.32 578.815C613.834 576.955 618.485 576.17 622.317 574.998C628.918 572.98 640.44 568.561 645.873 564.555C650.181 561.379 650.152 557.125 651.01 552.196Z"/><defs><linearGradient id="gradient_28" gradientUnits="userSpaceOnUse" x1="517.56592" y1="583.18341" x2="535.79193" y2="607.28992"><stop offset="0" stop-color="#4B301B"/><stop offset="1" stop-color="#986B3D"/></linearGradient></defs><path fill="url(#gradient_28)" d="M468.476 619.62C477.009 613.886 486.727 609.221 495.741 604.223C503.949 599.672 511.895 594.313 520.642 590.866C528.178 587.897 536.115 585.78 543.873 583.481L578.717 573.194L579.597 573.999C578.947 575.968 576.409 577.263 574.665 578.154C566.921 582.11 560.347 584.568 554.217 591.143C553.147 592.29 551.885 593.456 551.322 594.943L551.382 595.791L554.382 594.983C555.722 594.624 556.616 594.618 557.991 594.798L468.476 619.62Z"/><defs><linearGradient id="gradient_29" gradientUnits="userSpaceOnUse" x1="639.44336" y1="527.00378" x2="652.70917" y2="538.93518"><stop offset="0" stop-color="#A66B2F"/><stop offset="1" stop-color="#CF9048"/></linearGradient></defs><path fill="url(#gradient_29)" d="M640.484 519.149C642.618 521.768 644.326 524.845 646.967 526.988C649.874 525.996 652.769 525.194 655.753 524.468C654.124 527.122 652.566 529.919 650.749 532.444C652.725 534.79 654.302 537.018 655.795 539.704C652.582 538.822 649.435 537.941 646.125 537.497C643.961 540.26 642.228 543.103 640.628 546.226C640.342 542.846 640.11 539.464 639.509 536.123C637.291 534.868 635.236 534.047 632.823 533.283C634.785 532.211 636.755 530.985 638.792 530.07L640.484 519.149Z"/><path fill="#99612F" d="M640.484 519.149C642.618 521.768 644.326 524.845 646.967 526.988C644.084 527.903 641.867 529.47 638.792 530.07L640.484 519.149Z"/><path fill="#99612F" d="M591.565 547.921C593.273 548.678 594.993 552.289 595.996 553.88C592.825 553.072 589.783 552.501 586.528 552.149C585.529 553.723 584.688 555.421 583.799 557.061C583.421 557.838 583.119 558.248 582.456 558.804C581.321 557.855 580.975 555.54 580.537 554.085C584.352 552.235 587.943 550.123 591.565 547.921Z"/><path fill="#504B49" d="M695.248 105.674C695.996 105.514 697.02 105.196 697.775 105.247C699.11 105.339 699.291 105.766 699.997 106.751C699.334 106.771 698.659 106.806 697.994 106.782C696.573 106.73 696.214 106.751 695.248 105.674Z"/><defs><linearGradient id="gradient_30" gradientUnits="userSpaceOnUse" x1="173.49171" y1="861.93616" x2="171.03316" y2="862.25537"><stop offset="0" stop-color="black" stop-opacity="0"/><stop offset="1" stop-color="#1D1D02" stop-opacity="0.011764706"/></linearGradient></defs><path fill="url(#gradient_30)" d="M172.838 860.361C173.739 861.231 173.85 862.458 174.043 863.617L173.784 863.613C172.958 862.837 173.34 863.034 172.479 862.698C171.601 862.356 172.128 862.649 171.244 862.005L172.838 860.361Z"/><path fill="#1E181B" fill-opacity="0.015686275" d="M853.482 290.735C853.94 291.079 854.362 291.591 854.765 292.002C854.939 293.455 854.88 294.767 854.767 296.215C853.587 295.148 853.996 293.289 853.683 291.714L853.482 290.735Z"/></svg>